<svg width="360" height="640" viewBox="0 0 360 640" fill="none" xmlns="http://www.w3.org/2000/svg">
<rect width="360" height="640" fill="white"/>
<path d="M293.344 294C293.344 287.9 290.92 282.05 286.608 277.737C282.294 273.423 276.443 271 270.344 271C264.244 271 258.394 273.423 254.08 277.737C249.767 282.05 247.344 287.9 247.344 294H255.558C255.558 290.078 257.114 286.317 259.887 283.544C262.66 280.771 266.422 279.213 270.344 279.213C274.265 279.213 278.027 280.771 280.8 283.544C283.573 286.317 285.13 290.078 285.13 294H293.344Z" fill="#61259E"/>
<path d="M293.344 248C293.344 254.1 290.92 259.95 286.608 264.263C282.294 268.577 276.443 271 270.344 271C264.244 271 258.394 268.577 254.08 264.263C249.767 259.95 247.344 254.1 247.344 248H255.565C255.565 251.919 257.122 255.678 259.893 258.45C262.665 261.221 266.424 262.778 270.344 262.778C274.264 262.778 278.023 261.221 280.794 258.45C283.566 255.678 285.123 251.919 285.123 248H293.344Z" fill="#995AD8"/>
<path fill-rule="evenodd" clip-rule="evenodd" d="M113.562 275.953H113.754C114.268 275.953 114.749 275.856 115.199 275.664C115.661 275.471 116.059 275.208 116.393 274.874C116.739 274.528 117.009 274.13 117.201 273.681C117.407 273.231 117.509 272.75 117.509 272.236V253H123.209V272.236C123.209 272.75 123.312 273.231 123.517 273.681C123.723 274.13 123.992 274.528 124.326 274.874C124.673 275.208 125.071 275.471 125.52 275.664C125.982 275.856 126.477 275.953 127.003 275.953H127.195H152.768V281.652H127.195H127.003H126.733V281.649C125.526 281.618 124.396 281.382 123.344 280.94C122.214 280.452 121.226 279.785 120.379 278.937C119.531 279.785 118.536 280.452 117.394 280.94C116.315 281.394 115.159 281.631 113.928 281.651V281.652L113.843 281.652L113.754 281.652H113.562V281.646C112.415 281.602 111.337 281.354 110.327 280.901C109.21 280.401 108.228 279.74 107.38 278.918C106.803 279.496 106.148 279.996 105.416 280.42C104.556 280.908 103.657 281.261 102.72 281.479C101.783 281.684 100.852 281.742 99.9281 281.652H81.5958V281.672H81.4225C80.113 281.672 78.887 281.421 77.7445 280.921C76.6019 280.42 75.6006 279.74 74.7404 278.88C73.8803 278.019 73.1999 277.018 72.6992 275.876C72.2114 274.733 72.6993 273.533 72.6993 272.236C72.6993 270.927 73.749 270.349 74.2369 269.194C74.7375 268.039 74.8897 268.347 75.7498 267.499C76.6099 266.639 76.7945 266.361 77.937 265.86C79.0796 265.359 80.113 265.478 81.4225 265.478H81.5958V268.385H81.4225C80.909 268.385 80.4211 268.488 79.959 268.693C79.5097 268.886 79.1117 269.155 78.7651 269.502C78.4184 269.849 78.1424 270.253 77.937 270.715C77.7445 271.177 77.6482 271.678 77.6482 272.217C77.6482 272.731 77.7445 273.218 77.937 273.681C78.1296 274.13 78.3928 274.528 78.7265 274.874C79.0732 275.208 79.4711 275.478 79.9205 275.683C80.3698 275.876 80.8576 275.972 81.384 275.972V275.991H91.9751C91.513 274.9 91.2562 273.777 91.2048 272.621C91.1663 271.466 91.3204 270.356 91.667 269.29C92.0136 268.212 92.5464 267.217 93.2653 266.306C93.9842 265.394 94.8764 264.63 95.942 264.014C97.0589 263.36 98.2399 262.962 99.4852 262.82C100.73 262.679 101.937 262.769 103.105 263.09C104.287 263.398 105.378 263.931 106.379 264.688C107.393 265.433 108.228 266.37 108.882 267.499C109.332 268.283 109.659 269.091 109.865 269.926C110.07 270.747 110.16 271.582 110.134 272.429C110.173 272.917 110.301 273.379 110.519 273.815C110.737 274.239 111.014 274.611 111.347 274.932C111.681 275.253 112.066 275.51 112.503 275.702C112.841 275.847 113.194 275.938 113.562 275.974V275.953ZM100.949 275.991C101.539 275.914 102.085 275.722 102.586 275.414C103.086 275.093 103.503 274.65 103.837 274.085C104.094 273.648 104.248 273.186 104.299 272.699C104.351 272.198 104.312 271.716 104.184 271.254C104.055 270.779 103.837 270.343 103.529 269.945C103.234 269.534 102.862 269.194 102.412 268.924C101.963 268.668 101.488 268.514 100.987 268.462C100.487 268.398 99.9987 268.43 99.5237 268.559C99.0616 268.674 98.6251 268.886 98.2143 269.194C97.8163 269.489 97.4825 269.868 97.2129 270.33C96.9433 270.779 96.7764 271.254 96.7122 271.755C96.6609 272.256 96.6994 272.743 96.8278 273.218C96.9562 273.681 97.168 274.117 97.4633 274.528C97.7585 274.926 98.1308 275.253 98.5801 275.51C99.0808 275.792 99.5751 275.953 100.063 275.991H100.949ZM100.358 253.886C100.82 253.886 101.25 253.976 101.648 254.155C102.046 254.335 102.393 254.579 102.688 254.887C102.996 255.182 103.234 255.535 103.401 255.946C103.58 256.357 103.67 256.793 103.67 257.255C103.67 257.718 103.58 258.154 103.401 258.565C103.234 258.963 102.996 259.316 102.688 259.624C102.393 259.919 102.046 260.157 101.648 260.336C101.25 260.503 100.82 260.587 100.358 260.587C99.896 260.587 99.4595 260.503 99.0487 260.336C98.6507 260.157 98.2977 259.919 97.9896 259.624C97.6943 259.316 97.4568 258.963 97.2771 258.565C97.1102 258.154 97.0268 257.718 97.0268 257.255C97.0268 256.793 97.1102 256.357 97.2771 255.946C97.4568 255.535 97.6943 255.182 97.9896 254.887C98.2977 254.579 98.6507 254.335 99.0487 254.155C99.4595 253.976 99.896 253.886 100.358 253.886ZM134.397 263.687C134 263.507 133.569 263.417 133.107 263.417C132.645 263.417 132.209 263.507 131.798 263.687C131.4 263.867 131.047 264.111 130.739 264.419C130.443 264.714 130.206 265.067 130.026 265.478C129.859 265.888 129.776 266.325 129.776 266.787C129.776 267.249 129.859 267.686 130.026 268.096C130.206 268.494 130.443 268.847 130.739 269.155C131.047 269.451 131.4 269.688 131.798 269.868C132.209 270.035 132.645 270.118 133.107 270.118C133.569 270.118 134 270.035 134.397 269.868C134.795 269.688 135.142 269.451 135.437 269.155C135.745 268.847 135.983 268.494 136.15 268.096C136.33 267.686 136.419 267.249 136.419 266.787C136.419 266.325 136.33 265.888 136.15 265.478C135.983 265.067 135.745 264.714 135.437 264.419C135.142 264.111 134.795 263.867 134.397 263.687ZM141.561 263.687C141.163 263.507 140.733 263.417 140.271 263.417C139.809 263.417 139.372 263.507 138.961 263.687C138.563 263.867 138.21 264.111 137.902 264.419C137.607 264.714 137.369 265.067 137.19 265.478C137.023 265.888 136.939 266.325 136.939 266.787C136.939 267.249 137.023 267.686 137.19 268.096C137.369 268.494 137.607 268.847 137.902 269.155C138.21 269.451 138.563 269.688 138.961 269.868C139.372 270.035 139.809 270.118 140.271 270.118C140.733 270.118 141.163 270.035 141.561 269.868C141.959 269.688 142.306 269.451 142.601 269.155C142.909 268.847 143.146 268.494 143.313 268.096C143.493 267.686 143.583 267.249 143.583 266.787C143.583 266.325 143.493 265.888 143.313 265.478C143.146 265.067 142.909 264.714 142.601 264.419C142.306 264.111 141.959 263.867 141.561 263.687ZM148.936 263.687C148.538 263.507 148.108 263.417 147.646 263.417C147.184 263.417 146.747 263.507 146.337 263.687C145.939 263.867 145.586 264.111 145.277 264.419C144.982 264.714 144.745 265.067 144.565 265.478C144.398 265.888 144.315 266.325 144.315 266.787C144.315 267.249 144.398 267.686 144.565 268.096C144.745 268.494 144.982 268.847 145.277 269.155C145.586 269.451 145.939 269.688 146.337 269.868C146.747 270.035 147.184 270.118 147.646 270.118C148.108 270.118 148.538 270.035 148.936 269.868C149.334 269.688 149.681 269.451 149.976 269.155C150.284 268.847 150.522 268.494 150.689 268.096C150.868 267.686 150.958 267.249 150.958 266.787C150.958 266.325 150.868 265.888 150.689 265.478C150.522 265.067 150.284 264.714 149.976 264.419C149.681 264.111 149.334 263.867 148.936 263.687ZM172.121 273.738C172.224 273.494 172.301 273.251 172.352 273.007C172.404 272.75 172.429 272.493 172.429 272.236C172.429 271.697 172.327 271.197 172.121 270.734C171.929 270.272 171.659 269.874 171.312 269.541C170.966 269.194 170.561 268.924 170.099 268.732C169.637 268.526 169.149 268.424 168.636 268.424C168.109 268.424 167.615 268.526 167.153 268.732C166.691 268.924 166.286 269.194 165.94 269.541C165.593 269.874 165.317 270.272 165.112 270.734C164.919 271.197 164.823 271.697 164.823 272.236C164.823 272.763 164.919 273.257 165.112 273.719C165.317 274.181 165.593 274.586 165.94 274.932C166.286 275.279 166.691 275.555 167.153 275.76C167.615 275.953 168.109 276.049 168.636 276.049C169.252 276.049 169.823 275.908 170.35 275.625C170.876 275.33 171.306 274.951 171.64 274.489L172.121 273.738ZM178.9 281.633H174.278H174.085L169.656 289.374L164.746 286.543L167.577 281.633C166.383 281.505 165.272 281.171 164.245 280.632C163.218 280.08 162.326 279.387 161.569 278.552C160.811 277.705 160.214 276.742 159.778 275.664C159.354 274.586 159.142 273.443 159.142 272.236C159.142 270.927 159.393 269.695 159.893 268.539C160.394 267.384 161.074 266.383 161.934 265.535C162.795 264.675 163.802 263.995 164.958 263.494C166.113 262.994 167.339 262.743 168.636 262.743C169.932 262.743 171.158 262.994 172.314 263.494C173.469 263.995 174.477 264.675 175.337 265.535C176.197 266.383 176.878 267.384 177.378 268.539C177.879 269.695 178.129 270.927 178.129 272.236C178.129 273.546 177.873 274.785 177.359 275.953H179.452C179.766 275.908 180.07 275.825 180.363 275.702C180.825 275.497 181.23 275.227 181.576 274.894C181.923 274.547 182.199 274.149 182.404 273.7C182.61 273.238 182.712 272.743 182.712 272.217V270.349H188.393V272.217C188.393 273.514 188.143 274.74 187.642 275.895C187.141 277.037 186.461 278.039 185.601 278.899C184.741 279.746 183.733 280.42 182.578 280.921C181.618 281.326 180.611 281.562 179.554 281.631V281.633H179.525C179.318 281.646 179.11 281.652 178.9 281.652V281.633ZM180.228 256.042C179.83 255.863 179.4 255.773 178.938 255.773C178.476 255.773 178.039 255.863 177.629 256.042C177.231 256.222 176.878 256.466 176.569 256.774C176.274 257.069 176.043 257.422 175.876 257.833C175.697 258.244 175.607 258.68 175.607 259.143C175.607 259.605 175.697 260.041 175.876 260.452C176.043 260.85 176.274 261.203 176.569 261.511C176.878 261.806 177.231 262.044 177.629 262.223C178.039 262.39 178.476 262.474 178.938 262.474C179.4 262.474 179.83 262.39 180.228 262.223C180.626 262.044 180.973 261.806 181.268 261.511C181.576 261.203 181.814 260.85 181.981 260.452C182.16 260.041 182.25 259.605 182.25 259.143C182.25 258.68 182.16 258.244 181.981 257.833C181.814 257.422 181.576 257.069 181.268 256.774C180.973 256.466 180.626 256.222 180.228 256.042ZM188.046 256.042C187.648 255.863 187.218 255.773 186.756 255.773C186.294 255.773 185.858 255.863 185.447 256.042C185.049 256.222 184.696 256.466 184.388 256.774C184.092 257.069 183.855 257.422 183.675 257.833C183.508 258.244 183.425 258.68 183.425 259.143C183.425 259.605 183.508 260.041 183.675 260.452C183.855 260.85 184.092 261.203 184.388 261.511C184.696 261.806 185.049 262.044 185.447 262.223C185.858 262.39 186.294 262.474 186.756 262.474C187.218 262.474 187.648 262.39 188.046 262.223C188.444 262.044 188.791 261.806 189.086 261.511C189.394 261.203 189.632 260.85 189.799 260.452C189.979 260.041 190.068 259.605 190.068 259.143C190.068 258.68 189.979 258.244 189.799 257.833C189.632 257.422 189.394 257.069 189.086 256.774C188.791 256.466 188.444 256.222 188.046 256.042Z" fill="#61259E"/>
<path d="M178.947 281.666H174.325H174.133L169.704 289.407L164.793 286.576L167.624 281.666C166.43 281.538 165.319 281.204 164.292 280.665C163.265 280.113 162.373 279.419 161.616 278.585C160.858 277.738 160.261 276.775 159.825 275.697C159.401 274.618 159.189 273.476 159.189 272.269C159.189 270.96 159.44 269.727 159.94 268.572C160.441 267.417 161.122 266.416 161.982 265.568C162.842 264.708 163.85 264.028 165.005 263.527C166.16 263.027 167.386 262.776 168.683 262.776C169.98 262.776 171.206 263.027 172.361 263.527C173.516 264.028 174.524 264.708 175.384 265.568C176.244 266.416 176.925 267.417 177.425 268.572C177.926 269.727 178.176 270.96 178.176 272.269C178.176 273.579 177.92 274.817 177.406 275.986H179.499C179.813 275.941 180.117 275.857 180.41 275.735C180.872 275.53 181.277 275.26 181.623 274.927C181.97 274.58 182.246 274.182 182.451 273.733C182.657 273.271 182.76 272.776 182.76 272.25V270.382H188.44V272.25C188.44 273.547 188.19 274.772 187.689 275.928C187.189 277.07 186.508 278.072 185.648 278.932C184.788 279.779 183.78 280.453 182.625 280.954C181.666 281.358 180.658 281.595 179.601 281.664V281.666H179.572C179.366 281.679 179.157 281.685 178.947 281.685V281.666Z" fill="#995AD8"/>
<path d="M180.275 256.075C179.877 255.896 179.447 255.806 178.985 255.806C178.523 255.806 178.087 255.896 177.676 256.075C177.278 256.255 176.925 256.499 176.617 256.807C176.321 257.102 176.09 257.455 175.923 257.866C175.744 258.277 175.654 258.713 175.654 259.175C175.654 259.638 175.744 260.074 175.923 260.485C176.09 260.883 176.321 261.236 176.617 261.544C176.925 261.839 177.278 262.077 177.676 262.256C178.087 262.423 178.523 262.507 178.985 262.507C179.447 262.507 179.877 262.423 180.275 262.256C180.673 262.077 181.02 261.839 181.315 261.544C181.623 261.236 181.861 260.883 182.028 260.485C182.208 260.074 182.297 259.638 182.297 259.175C182.297 258.713 182.208 258.277 182.028 257.866C181.861 257.455 181.623 257.102 181.315 256.807C181.02 256.499 180.673 256.255 180.275 256.075Z" fill="#995AD8"/>
<path d="M188.094 256.075C187.696 255.896 187.266 255.806 186.803 255.806C186.341 255.806 185.905 255.896 185.494 256.075C185.096 256.255 184.743 256.499 184.435 256.807C184.14 257.102 183.902 257.455 183.722 257.866C183.556 258.277 183.472 258.713 183.472 259.175C183.472 259.638 183.556 260.074 183.722 260.485C183.902 260.883 184.14 261.236 184.435 261.544C184.743 261.839 185.096 262.077 185.494 262.256C185.905 262.423 186.341 262.507 186.803 262.507C187.266 262.507 187.696 262.423 188.094 262.256C188.492 262.077 188.838 261.839 189.134 261.544C189.442 261.236 189.679 260.883 189.846 260.485C190.026 260.074 190.116 259.638 190.116 259.175C190.116 258.713 190.026 258.277 189.846 257.866C189.679 257.455 189.442 257.102 189.134 256.807C188.838 256.499 188.492 256.255 188.094 256.075Z" fill="#995AD8"/>
<path d="M172.357 272.224C172.357 274.293 170.68 275.97 168.611 275.97C166.543 275.97 164.866 274.293 164.866 272.224C164.866 270.156 166.543 268.479 168.611 268.479C170.68 268.479 172.357 270.156 172.357 272.224Z" fill="white"/>
<path d="M221.699 286.083C221.699 287.872 220.248 289.323 218.459 289.323C216.669 289.323 215.219 287.872 215.219 286.083C215.219 284.293 216.669 282.843 218.459 282.843C220.248 282.843 221.699 284.293 221.699 286.083Z" fill="#61259E"/>
<path fill-rule="evenodd" clip-rule="evenodd" d="M194.622 281.018C194.622 276.429 198.793 272.162 203.36 272.162H206.528V278.029H203.36C201.776 278.029 200.492 279.426 200.492 281.018C200.492 282.609 201.776 283.431 203.36 283.431H207.528V289.327H203.36C198.793 289.327 194.622 285.607 194.622 281.018Z" fill="#61259E"/>
<path fill-rule="evenodd" clip-rule="evenodd" d="M71.9688 273.348C71.9688 268.759 76.1394 264.492 80.7066 264.492H83.8744V270.359H80.7066C79.1228 270.359 77.8389 271.757 77.8389 273.348C77.8389 274.939 78.8922 276.257 80.476 276.257L84.6366 276.825L84.8748 281.657H80.7066C76.1394 281.657 71.9688 277.937 71.9688 273.348Z" fill="#61259E"/>
<path fill-rule="evenodd" clip-rule="evenodd" d="M219.049 267.114V266.575L224.776 266.731V267.27C224.776 273.217 219.972 278.038 214.046 278.038H205.021V272.135H214.046C216.981 272.135 219.049 270.06 219.049 267.114Z" fill="#61259E"/>
<path d="M151.88 555.108C151.88 555.722 151.763 556.299 151.528 556.837C151.293 557.376 150.972 557.849 150.565 558.256C150.164 558.657 149.695 558.975 149.156 559.209C148.617 559.444 148.041 559.561 147.426 559.561H140.731C140.327 559.561 140 559.234 140 558.83V545.44C140 545.036 140.327 544.709 140.731 544.709H147.426C148.041 544.709 148.617 544.826 149.156 545.061C149.695 545.296 150.164 545.617 150.565 546.024C150.972 546.425 151.293 546.894 151.528 547.433C151.763 547.972 151.88 548.548 151.88 549.163C151.88 549.439 151.842 549.722 151.766 550.012C151.69 550.302 151.583 550.582 151.445 550.851C151.307 551.12 151.141 551.365 150.948 551.586C150.754 551.807 150.54 551.99 150.306 552.135C150.547 552.266 150.765 552.446 150.958 552.674C151.151 552.895 151.317 553.14 151.455 553.409C151.593 553.678 151.697 553.962 151.766 554.258C151.842 554.548 151.88 554.832 151.88 555.108ZM142.973 556.589H147.426C147.633 556.589 147.827 556.551 148.006 556.475C148.186 556.399 148.341 556.295 148.472 556.164C148.61 556.026 148.717 555.867 148.793 555.688C148.869 555.508 148.907 555.315 148.907 555.108C148.907 554.901 148.869 554.707 148.793 554.528C148.717 554.348 148.61 554.193 148.472 554.062C148.341 553.924 148.186 553.817 148.006 553.741C147.827 553.665 147.633 553.627 147.426 553.627H142.973V556.589ZM142.973 550.654H147.426C147.633 550.654 147.827 550.616 148.006 550.54C148.186 550.464 148.341 550.361 148.472 550.229C148.61 550.091 148.717 549.933 148.793 549.753C148.869 549.567 148.907 549.37 148.907 549.163C148.907 548.955 148.869 548.762 148.793 548.583C148.717 548.403 148.61 548.248 148.472 548.117C148.341 547.978 148.186 547.871 148.006 547.795C147.827 547.72 147.633 547.682 147.426 547.682H142.973V550.654Z" fill="#61259E"/>
<path d="M169.96 549.163C169.96 548.548 170.077 547.972 170.312 547.433C170.547 546.894 170.865 546.425 171.265 546.024C171.673 545.617 172.146 545.296 172.684 545.061C173.223 544.826 173.799 544.709 174.414 544.709H180.626C180.959 544.709 181.229 544.979 181.229 545.312V547.079C181.229 547.412 180.959 547.682 180.626 547.682H174.414C174.207 547.682 174.013 547.72 173.834 547.795C173.654 547.871 173.495 547.978 173.357 548.117C173.226 548.248 173.123 548.403 173.047 548.583C172.971 548.762 172.933 548.955 172.933 549.163C172.933 549.37 172.971 549.567 173.047 549.753C173.123 549.933 173.226 550.091 173.357 550.229C173.495 550.361 173.654 550.464 173.834 550.54C174.013 550.616 174.207 550.654 174.414 550.654H177.386C178.001 550.654 178.577 550.771 179.116 551.006C179.662 551.234 180.135 551.552 180.535 551.959C180.942 552.36 181.26 552.833 181.488 553.378C181.723 553.917 181.84 554.493 181.84 555.108C181.84 555.722 181.723 556.299 181.488 556.837C181.26 557.376 180.942 557.849 180.535 558.256C180.135 558.657 179.662 558.975 179.116 559.209C178.577 559.444 178.001 559.561 177.386 559.561H171.391C171.058 559.561 170.789 559.292 170.789 558.959V557.191C170.789 556.859 171.058 556.589 171.391 556.589H177.386C177.594 556.589 177.787 556.551 177.966 556.475C178.146 556.399 178.301 556.295 178.432 556.164C178.571 556.026 178.678 555.867 178.754 555.688C178.829 555.508 178.867 555.315 178.867 555.108C178.867 554.901 178.829 554.707 178.754 554.528C178.678 554.348 178.571 554.193 178.432 554.062C178.301 553.924 178.146 553.817 177.966 553.741C177.787 553.665 177.594 553.627 177.386 553.627H174.414C173.799 553.627 173.223 553.509 172.684 553.275C172.146 553.04 171.673 552.722 171.265 552.322C170.865 551.914 170.547 551.441 170.312 550.903C170.077 550.357 169.96 549.777 169.96 549.163Z" fill="#61259E"/>
<path d="M186.725 558.959C186.725 559.292 186.455 559.561 186.122 559.561H184.5C184.167 559.561 183.897 559.292 183.897 558.959V544.659C183.897 544.326 184.167 544.056 184.5 544.056H186.122C186.455 544.056 186.725 544.326 186.725 544.659V548.955C187.063 548.7 187.412 548.52 187.771 548.417C188.13 548.306 188.496 548.251 188.869 548.251C189.552 548.251 190.194 548.382 190.795 548.645C191.396 548.9 191.917 549.256 192.359 549.712C192.808 550.16 193.16 550.689 193.415 551.296C193.678 551.897 193.809 552.539 193.809 553.223V558.959C193.809 559.292 193.539 559.561 193.206 559.561H191.563C191.231 559.561 190.961 559.292 190.961 558.959V553.223H190.982C190.982 552.933 190.926 552.66 190.816 552.404C190.705 552.142 190.553 551.914 190.36 551.721C190.167 551.528 189.942 551.376 189.687 551.265C189.431 551.155 189.159 551.099 188.869 551.099C188.572 551.099 188.292 551.155 188.03 551.265C187.767 551.376 187.539 551.528 187.346 551.721C187.153 551.914 187.001 552.142 186.89 552.404C186.78 552.66 186.725 552.933 186.725 553.223V558.959Z" fill="#61259E"/>
<path d="M210.585 558.959C210.585 559.292 210.315 559.561 209.982 559.561H208.339C208.006 559.561 207.736 559.292 207.736 558.959V544.659C207.736 544.326 208.006 544.056 208.339 544.056H209.982C210.315 544.056 210.585 544.326 210.585 544.659V558.959Z" fill="#61259E"/>
<path d="M216.743 558.959C216.743 559.292 216.473 559.561 216.141 559.561H214.518C214.185 559.561 213.916 559.292 213.916 558.959V551.286H213.141C212.808 551.286 212.538 551.016 212.538 550.683V549.071C212.538 548.738 212.808 548.469 213.141 548.469H213.916V547.94C213.916 547.257 214.043 546.615 214.299 546.014C214.561 545.413 214.917 544.892 215.366 544.45C215.821 544.001 216.35 543.649 216.95 543.394C217.551 543.131 218.193 543 218.877 543H220.397C220.73 543 221 543.27 221 543.603V545.215C221 545.547 220.73 545.817 220.397 545.817H218.877C218.573 545.817 218.29 545.872 218.027 545.983C217.772 546.086 217.548 546.235 217.354 546.428C217.168 546.615 217.019 546.839 216.909 547.102C216.798 547.357 216.743 547.637 216.743 547.94V548.469H219.61C219.943 548.469 220.213 548.738 220.213 549.071V550.683C220.213 551.016 219.943 551.286 219.61 551.286H216.743V558.959Z" fill="#61259E"/>
<path d="M166.895 549.199C166.895 548.584 166.777 548.008 166.542 547.469C166.308 546.931 165.99 546.461 165.59 546.061C165.182 545.653 164.709 545.332 164.171 545.097C163.632 544.863 163.055 544.745 162.441 544.745H156.228C155.895 544.745 155.626 545.015 155.626 545.348V547.115C155.626 547.448 155.895 547.718 156.228 547.718H162.441C162.648 547.718 162.841 547.756 163.021 547.832C163.2 547.908 163.359 548.015 163.497 548.153C163.629 548.284 163.732 548.439 163.808 548.619C163.884 548.798 163.922 548.992 163.922 549.199C163.922 549.406 163.884 549.603 163.808 549.789C163.732 549.969 163.629 550.127 163.497 550.266C163.359 550.397 163.2 550.5 163.021 550.576C162.841 550.652 162.648 550.69 162.441 550.69H159.468C158.854 550.69 158.277 550.808 157.739 551.042C157.193 551.27 156.72 551.588 156.32 551.995C155.912 552.396 155.595 552.869 155.367 553.414C155.132 553.953 155.015 554.529 155.015 555.144C155.015 555.758 155.132 556.335 155.367 556.874C155.595 557.412 155.912 557.885 156.32 558.293C156.72 558.693 157.193 559.011 157.739 559.245C158.277 559.48 158.854 559.598 159.468 559.598H165.463C165.796 559.598 166.066 559.328 166.066 558.995V557.228C166.066 556.895 165.796 556.625 165.463 556.625H159.468C159.261 556.625 159.068 556.587 158.888 556.511C158.709 556.435 158.553 556.332 158.422 556.2C158.284 556.062 158.177 555.903 158.101 555.724C158.025 555.544 157.987 555.351 157.987 555.144C157.987 554.937 158.025 554.743 158.101 554.564C158.177 554.384 158.284 554.229 158.422 554.098C158.553 553.96 158.709 553.853 158.888 553.777C159.068 553.701 159.261 553.663 159.468 553.663H162.441C163.055 553.663 163.632 553.545 164.171 553.311C164.709 553.076 165.182 552.758 165.59 552.358C165.99 551.95 166.308 551.477 166.542 550.939C166.777 550.393 166.895 549.813 166.895 549.199Z" fill="#995AD8"/>
<path d="M203.779 550.294C204.109 549.984 204.627 550 204.937 550.329L205.409 550.831C205.719 551.16 205.703 551.679 205.373 551.989L200.284 556.775C199.954 557.085 199.436 557.069 199.126 556.739L198.654 556.238C198.344 555.908 198.36 555.39 198.69 555.08L203.779 550.294Z" fill="#61259E"/>
<path fill-rule="evenodd" clip-rule="evenodd" d="M202.391 551.493C201.808 551.253 201.163 551.203 200.549 551.35C199.936 551.498 199.387 551.835 198.981 552.311C198.575 552.788 198.332 553.379 198.287 553.999C198.243 554.619 198.397 555.238 198.73 555.766C199.063 556.295 199.557 556.706 200.143 556.939C200.728 557.172 201.374 557.215 201.986 557.06C202.538 556.92 203.044 556.828 203.488 556.293L205.15 557.571C204.455 558.406 203.779 559.178 202.598 559.477C201.477 559.761 200.295 559.684 199.22 559.256C198.146 558.829 197.235 558.072 196.62 557.095C196.004 556.118 195.717 554.97 195.8 553.819C195.884 552.667 196.333 551.573 197.083 550.694C197.832 549.815 198.842 549.196 199.966 548.926C201.09 548.655 202.272 548.747 203.341 549.187C203.954 549.44 204.431 549.824 204.805 550.18C205.019 550.385 205.271 550.655 205.477 550.876C205.582 550.989 205.463 551.236 205.533 551.308L203.96 552.902C203.793 552.73 203.666 552.593 203.551 552.468C203.397 552.301 203.264 552.157 203.085 551.986C202.821 551.735 202.603 551.58 202.391 551.493Z" fill="#61259E"/>
<path fill-rule="evenodd" clip-rule="evenodd" d="M204.988 556.649C205.404 557.198 205.296 557.98 204.747 558.396C203.866 559.062 202.822 559.478 201.725 559.598C200.627 559.719 199.507 559.352 198.503 558.892L199.552 556.813C200.146 557.085 200.803 557.191 201.453 557.119C202.102 557.048 202.72 556.802 203.241 556.408C203.79 555.992 204.572 556.1 204.988 556.649Z" fill="#61259E"/>
</svg>
