<svg width="223" height="46" viewBox="0 0 223 46" fill="none" xmlns="http://www.w3.org/2000/svg">
<path fill-rule="evenodd" clip-rule="evenodd" d="M42.5618 27.7496H42.7544C43.2679 27.7496 43.7493 27.6533 44.1986 27.4608C44.6608 27.2682 45.0587 27.005 45.3925 26.6713C45.7391 26.3247 46.0087 25.9267 46.2013 25.4774C46.4067 25.0281 46.5094 24.5467 46.5094 24.0333V4.79688H52.2094V24.0333C52.2094 24.5467 52.3121 25.0281 52.5175 25.4774C52.7229 25.9267 52.9925 26.3247 53.3262 26.6713C53.6729 27.005 54.0709 27.2682 54.5202 27.4608C54.9823 27.6533 55.4766 27.7496 56.0029 27.7496H56.1955H81.7683V33.4493H56.1955H56.0029H55.7333V33.4459C54.5257 33.4154 53.396 33.179 52.3442 32.7368C51.2144 32.249 50.2259 31.5815 49.3786 30.7342C48.5314 31.5815 47.5364 32.249 46.3939 32.7368C45.3146 33.1905 44.1592 33.4276 42.9277 33.4478V33.4493L42.8426 33.4489L42.7544 33.4493H42.5618V33.4424C41.4152 33.3991 40.3368 33.1511 39.3267 32.6983C38.2098 32.1976 37.2277 31.5365 36.3804 30.715C35.8027 31.2926 35.148 31.7933 34.4162 32.2169C33.5561 32.7047 32.6575 33.0577 31.7203 33.276C30.7832 33.4813 29.8524 33.5391 28.9281 33.4493H10.5958V33.4685H10.4225C9.11303 33.4685 7.88702 33.2182 6.74446 32.7175C5.6019 32.2169 4.60056 31.5365 3.74043 30.6764C2.8803 29.8164 2.1999 28.8151 1.69922 27.6726C1.21139 26.5301 1.69928 25.3298 1.69928 24.0333C1.69928 22.7239 2.74903 22.1462 3.23686 20.9909C3.73753 19.8355 3.88966 20.1436 4.74979 19.2964C5.60992 18.4363 5.79447 18.1574 6.93703 17.6568C8.07959 17.1561 9.11303 17.2745 10.4225 17.2745H10.5958V20.1821H10.4225C9.90897 20.1821 9.42113 20.2848 8.95897 20.4902C8.50965 20.6828 8.11168 20.9524 7.76506 21.299C7.41844 21.6456 7.14243 22.0499 6.93703 22.5121C6.74446 22.9742 6.64818 23.4748 6.64818 24.014C6.64818 24.5275 6.74446 25.0153 6.93703 25.4774C7.12959 25.9267 7.39277 26.3247 7.72655 26.6713C8.07317 27.005 8.47114 27.2746 8.92046 27.48C9.36978 27.6726 9.85762 27.7688 10.384 27.7688V27.7881H20.9751C20.513 26.6969 20.2562 25.5737 20.2048 24.4184C20.1663 23.263 20.3204 22.1526 20.667 21.0871C21.0136 20.0088 21.5464 19.014 22.2653 18.1025C22.9842 17.1911 23.8764 16.4273 24.942 15.8111C26.0589 15.1564 27.2399 14.7585 28.4852 14.6172C29.7305 14.476 30.9372 14.5659 32.1054 14.8868C33.2865 15.1949 34.3777 15.7277 35.3791 16.485C36.3933 17.2296 37.2277 18.1667 37.8824 19.2964C38.3318 20.0794 38.6591 20.8882 38.8645 21.7226C39.0699 22.5441 39.1598 23.3786 39.1341 24.2258C39.1726 24.7136 39.301 25.1758 39.5193 25.6122C39.7375 26.0358 40.0135 26.4081 40.3473 26.729C40.6811 27.05 41.0662 27.3067 41.5027 27.4993C41.8412 27.6443 42.1942 27.7347 42.5618 27.7705V27.7496ZM29.9487 27.7881C30.5392 27.7111 31.0848 27.5185 31.5855 27.2104C32.0862 26.8895 32.5034 26.4466 32.8372 25.8818C33.094 25.4453 33.248 24.9832 33.2994 24.4954C33.3507 23.9947 33.3122 23.5134 33.1838 23.0512C33.0554 22.5762 32.8372 22.1398 32.5291 21.7418C32.2338 21.331 31.8615 20.9909 31.4122 20.7213C30.9629 20.4645 30.4879 20.3105 29.9872 20.2591C29.4865 20.195 28.9987 20.2271 28.5237 20.3554C28.0616 20.471 27.6251 20.6828 27.2143 20.9909C26.8163 21.2861 26.4825 21.6648 26.2129 22.1269C25.9433 22.5762 25.7764 23.0512 25.7122 23.5519C25.6609 24.0525 25.6994 24.5403 25.8278 25.0153C25.9562 25.4774 26.168 25.9139 26.4633 26.3247C26.7585 26.7226 27.1308 27.05 27.5801 27.3067C28.0808 27.5891 28.5751 27.7496 29.0629 27.7881H29.9487ZM29.3582 5.68263C29.8203 5.68263 30.2504 5.77249 30.6484 5.95221C31.0463 6.13193 31.393 6.37584 31.6882 6.68393C31.9963 6.97918 32.2338 7.3322 32.4007 7.74299C32.5804 8.15377 32.6703 8.59023 32.6703 9.05237C32.6703 9.5145 32.5804 9.95097 32.4007 10.3618C32.2338 10.7597 31.9963 11.1127 31.6882 11.4208C31.393 11.7161 31.0463 11.9536 30.6484 12.1333C30.2504 12.3002 29.8203 12.3836 29.3582 12.3836C28.896 12.3836 28.4595 12.3002 28.0487 12.1333C27.6507 11.9536 27.2977 11.7161 26.9896 11.4208C26.6943 11.1127 26.4568 10.7597 26.2771 10.3618C26.1102 9.95097 26.0268 9.5145 26.0268 9.05237C26.0268 8.59023 26.1102 8.15377 26.2771 7.74299C26.4568 7.3322 26.6943 6.97918 26.9896 6.68393C27.2977 6.37584 27.6507 6.13193 28.0487 5.95221C28.4595 5.77249 28.896 5.68263 29.3582 5.68263ZM63.3975 15.4838C62.9995 15.304 62.5694 15.2142 62.1073 15.2142C61.6451 15.2142 61.2086 15.304 60.7978 15.4838C60.3999 15.6635 60.0468 15.9074 59.7387 16.2155C59.4434 16.5107 59.2059 16.8637 59.0262 17.2745C58.8593 17.6853 58.7759 18.1218 58.7759 18.5839C58.7759 19.046 58.8593 19.4825 59.0262 19.8933C59.2059 20.2912 59.4434 20.6443 59.7387 20.9524C60.0468 21.2476 60.3999 21.4851 60.7978 21.6648C61.2086 21.8317 61.6451 21.9151 62.1073 21.9151C62.5694 21.9151 62.9995 21.8317 63.3975 21.6648C63.7954 21.4851 64.1421 21.2476 64.4373 20.9524C64.7454 20.6443 64.9829 20.2912 65.1498 19.8933C65.3296 19.4825 65.4194 19.046 65.4194 18.5839C65.4194 18.1218 65.3296 17.6853 65.1498 17.2745C64.9829 16.8637 64.7454 16.5107 64.4373 16.2155C64.1421 15.9074 63.7954 15.6635 63.3975 15.4838ZM70.5609 15.4838C70.163 15.304 69.7329 15.2142 69.2707 15.2142C68.8086 15.2142 68.3721 15.304 67.9613 15.4838C67.5633 15.6635 67.2103 15.9074 66.9022 16.2155C66.6069 16.5107 66.3694 16.8637 66.1897 17.2745C66.0228 17.6853 65.9393 18.1218 65.9393 18.5839C65.9393 19.046 66.0228 19.4825 66.1897 19.8933C66.3694 20.2912 66.6069 20.6443 66.9022 20.9524C67.2103 21.2476 67.5633 21.4851 67.9613 21.6648C68.3721 21.8317 68.8086 21.9151 69.2707 21.9151C69.7329 21.9151 70.163 21.8317 70.5609 21.6648C70.9589 21.4851 71.3055 21.2476 71.6008 20.9524C71.9089 20.6443 72.1464 20.2912 72.3133 19.8933C72.493 19.4825 72.5829 19.046 72.5829 18.5839C72.5829 18.1218 72.493 17.6853 72.3133 17.2745C72.1464 16.8637 71.9089 16.5107 71.6008 16.2155C71.3055 15.9074 70.9589 15.6635 70.5609 15.4838ZM77.9362 15.4838C77.5383 15.304 77.1082 15.2142 76.646 15.2142C76.1839 15.2142 75.7474 15.304 75.3366 15.4838C74.9386 15.6635 74.5856 15.9074 74.2775 16.2155C73.9822 16.5107 73.7447 16.8637 73.565 17.2745C73.3981 17.6853 73.3146 18.1218 73.3146 18.5839C73.3146 19.046 73.3981 19.4825 73.565 19.8933C73.7447 20.2912 73.9822 20.6443 74.2775 20.9524C74.5856 21.2476 74.9386 21.4851 75.3366 21.6648C75.7474 21.8317 76.1839 21.9151 76.646 21.9151C77.1082 21.9151 77.5383 21.8317 77.9362 21.6648C78.3342 21.4851 78.6808 21.2476 78.9761 20.9524C79.2842 20.6443 79.5217 20.2912 79.6886 19.8933C79.8683 19.4825 79.9582 19.046 79.9582 18.5839C79.9582 18.1218 79.8683 17.6853 79.6886 17.2745C79.5217 16.8637 79.2842 16.5107 78.9761 16.2155C78.6808 15.9074 78.3342 15.6635 77.9362 15.4838ZM101.121 25.5352C101.224 25.2913 101.301 25.0474 101.352 24.8035C101.404 24.5467 101.429 24.29 101.429 24.0333C101.429 23.4941 101.327 22.9935 101.121 22.5313C100.929 22.0692 100.659 21.6712 100.312 21.3375C99.9658 20.9909 99.5614 20.7213 99.0993 20.5287C98.6371 20.3233 98.1493 20.2206 97.6358 20.2206C97.1094 20.2206 96.6152 20.3233 96.153 20.5287C95.6908 20.7213 95.2865 20.9909 94.9398 21.3375C94.5932 21.6712 94.3172 22.0692 94.1118 22.5313C93.9192 22.9935 93.8229 23.4941 93.8229 24.0333C93.8229 24.5596 93.9192 25.0538 94.1118 25.5159C94.3172 25.9781 94.5932 26.3824 94.9398 26.729C95.2865 27.0756 95.6908 27.3516 96.153 27.557C96.6152 27.7496 97.1094 27.8459 97.6358 27.8459C98.252 27.8459 98.8233 27.7047 99.3496 27.4222C99.8759 27.127 100.306 26.7483 100.64 26.2862L101.121 25.5352ZM107.9 33.43H103.278H103.085L98.6564 41.1708L93.7459 38.3402L96.5767 33.43C95.3827 33.3016 94.2723 32.9679 93.2453 32.4287C92.2182 31.8767 91.326 31.1835 90.5686 30.3491C89.8111 29.5018 89.2142 28.5391 88.7777 27.4608C88.3541 26.3824 88.1423 25.2399 88.1423 24.0333C88.1423 22.7239 88.3926 21.4915 88.8932 20.3362C89.3939 19.1808 90.0743 18.1795 90.9344 17.3323C91.7946 16.4722 92.8024 15.7918 93.9577 15.2912C95.1131 14.7905 96.3392 14.5402 97.6358 14.5402C98.9324 14.5402 100.158 14.7905 101.314 15.2912C102.469 15.7918 103.477 16.4722 104.337 17.3323C105.197 18.1795 105.878 19.1808 106.378 20.3362C106.879 21.4915 107.129 22.7239 107.129 24.0333C107.129 25.3426 106.873 26.5814 106.359 27.7496H108.452C108.766 27.705 109.07 27.6215 109.363 27.4993C109.825 27.2939 110.23 27.0243 110.576 26.6905C110.923 26.3439 111.199 25.946 111.404 25.4967C111.61 25.0345 111.712 24.5403 111.712 24.014V22.1462H117.393V24.014C117.393 25.3105 117.143 26.5365 116.642 27.6918C116.141 28.8343 115.461 29.8356 114.601 30.6957C113.741 31.5429 112.733 32.2169 111.578 32.7175C110.618 33.1225 109.611 33.3593 108.554 33.4281V33.43H108.525C108.318 33.4428 108.11 33.4493 107.9 33.4493V33.43ZM109.228 7.83926C108.83 7.65955 108.4 7.56969 107.938 7.56969C107.476 7.56969 107.039 7.65955 106.629 7.83926C106.231 8.01898 105.878 8.26289 105.569 8.57098C105.274 8.86623 105.043 9.21925 104.876 9.63004C104.697 10.0408 104.607 10.4773 104.607 10.9394C104.607 11.4016 104.697 11.838 104.876 12.2488C105.043 12.6468 105.274 12.9998 105.569 13.3079C105.878 13.6031 106.231 13.8406 106.629 14.0203C107.039 14.1872 107.476 14.2706 107.938 14.2706C108.4 14.2706 108.83 14.1872 109.228 14.0203C109.626 13.8406 109.973 13.6031 110.268 13.3079C110.576 12.9998 110.814 12.6468 110.981 12.2488C111.16 11.838 111.25 11.4016 111.25 10.9394C111.25 10.4773 111.16 10.0408 110.981 9.63004C110.814 9.21925 110.576 8.86623 110.268 8.57098C109.973 8.26289 109.626 8.01898 109.228 7.83926ZM117.046 7.83926C116.648 7.65955 116.218 7.56969 115.756 7.56969C115.294 7.56969 114.858 7.65955 114.447 7.83926C114.049 8.01898 113.696 8.26289 113.388 8.57098C113.092 8.86623 112.855 9.21925 112.675 9.63004C112.508 10.0408 112.425 10.4773 112.425 10.9394C112.425 11.4016 112.508 11.838 112.675 12.2488C112.855 12.6468 113.092 12.9998 113.388 13.3079C113.696 13.6031 114.049 13.8406 114.447 14.0203C114.858 14.1872 115.294 14.2706 115.756 14.2706C116.218 14.2706 116.648 14.1872 117.046 14.0203C117.444 13.8406 117.791 13.6031 118.086 13.3079C118.394 12.9998 118.632 12.6468 118.799 12.2488C118.979 11.838 119.068 11.4016 119.068 10.9394C119.068 10.4773 118.979 10.0408 118.799 9.63004C118.632 9.21925 118.394 8.86623 118.086 8.57098C117.791 8.26289 117.444 8.01898 117.046 7.83926Z" fill="#61259E"/>
<path d="M107.947 33.4629H103.325H103.133L98.7036 41.2036L93.7931 38.373L96.6239 33.4629C95.4299 33.3345 94.3195 33.0007 93.2925 32.4616C92.2654 31.9096 91.3732 31.2164 90.6158 30.382C89.8584 29.5347 89.2614 28.5719 88.8249 27.4936C88.4013 26.4153 88.1895 25.2728 88.1895 24.0661C88.1895 22.7567 88.4398 21.5244 88.9405 20.369C89.4411 19.2137 90.1215 18.2124 90.9817 17.3651C91.8418 16.5051 92.8496 15.8247 94.005 15.324C95.1603 14.8234 96.3864 14.5731 97.683 14.5731C98.9796 14.5731 100.206 14.8234 101.361 15.324C102.516 15.8247 103.524 16.5051 104.384 17.3651C105.244 18.2124 105.925 19.2137 106.425 20.369C106.926 21.5244 107.176 22.7567 107.176 24.0661C107.176 25.3755 106.92 26.6143 106.406 27.7824H108.499C108.813 27.7378 109.117 27.6544 109.41 27.5321C109.872 27.3267 110.277 27.0571 110.623 26.7234C110.97 26.3768 111.246 25.9788 111.451 25.5295C111.657 25.0674 111.76 24.5732 111.76 24.0469V22.1791H117.44V24.0469C117.44 25.3434 117.19 26.5693 116.689 27.7247C116.189 28.8672 115.508 29.8685 114.648 30.7285C113.788 31.5758 112.78 32.2497 111.625 32.7504C110.666 33.1553 109.658 33.3922 108.601 33.461V33.4629H108.572C108.366 33.4757 108.157 33.4821 107.947 33.4821V33.4629Z" fill="#995AD8"/>
<path d="M109.275 7.87212C108.877 7.6924 108.447 7.60254 107.985 7.60254C107.523 7.60254 107.087 7.6924 106.676 7.87212C106.278 8.05184 105.925 8.29574 105.617 8.60383C105.321 8.89908 105.09 9.25211 104.923 9.66289C104.744 10.0737 104.654 10.5101 104.654 10.9723C104.654 11.4344 104.744 11.8709 104.923 12.2817C105.09 12.6796 105.321 13.0326 105.617 13.3407C105.925 13.636 106.278 13.8735 106.676 14.0532C107.087 14.2201 107.523 14.3035 107.985 14.3035C108.447 14.3035 108.877 14.2201 109.275 14.0532C109.673 13.8735 110.02 13.636 110.315 13.3407C110.623 13.0326 110.861 12.6796 111.028 12.2817C111.208 11.8709 111.297 11.4344 111.297 10.9723C111.297 10.5101 111.208 10.0737 111.028 9.66289C110.861 9.25211 110.623 8.89908 110.315 8.60383C110.02 8.29574 109.673 8.05184 109.275 7.87212Z" fill="#995AD8"/>
<path d="M117.094 7.87212C116.696 7.6924 116.266 7.60254 115.803 7.60254C115.341 7.60254 114.905 7.6924 114.494 7.87212C114.096 8.05184 113.743 8.29574 113.435 8.60383C113.14 8.89908 112.902 9.25211 112.722 9.66289C112.556 10.0737 112.472 10.5101 112.472 10.9723C112.472 11.4344 112.556 11.8709 112.722 12.2817C112.902 12.6796 113.14 13.0326 113.435 13.3407C113.743 13.636 114.096 13.8735 114.494 14.0532C114.905 14.2201 115.341 14.3035 115.803 14.3035C116.266 14.3035 116.696 14.2201 117.094 14.0532C117.492 13.8735 117.838 13.636 118.134 13.3407C118.442 13.0326 118.679 12.6796 118.846 12.2817C119.026 11.8709 119.116 11.4344 119.116 10.9723C119.116 10.5101 119.026 10.0737 118.846 9.66289C118.679 9.25211 118.442 8.89908 118.134 8.60383C117.838 8.29574 117.492 8.05184 117.094 7.87212Z" fill="#995AD8"/>
<path d="M101.357 24.0214C101.357 26.0897 99.6798 27.7664 97.6114 27.7664C95.543 27.7664 93.8662 26.0897 93.8662 24.0214C93.8662 21.9531 95.543 20.2764 97.6114 20.2764C99.6798 20.2764 101.357 21.9531 101.357 24.0214Z" fill="white"/>
<path d="M150.699 37.8796C150.699 39.669 149.248 41.1196 147.459 41.1196C145.669 41.1196 144.219 39.669 144.219 37.8796C144.219 36.0902 145.669 34.6396 147.459 34.6396C149.248 34.6396 150.699 36.0902 150.699 37.8796Z" fill="#61259E"/>
<path fill-rule="evenodd" clip-rule="evenodd" d="M123.622 32.8146C123.622 28.2257 127.793 23.959 132.36 23.959H135.528V29.8262H132.36C130.776 29.8262 129.492 31.2233 129.492 32.8146C129.492 34.4059 130.776 35.2278 132.36 35.2278H136.528V41.1235H132.36C127.793 41.1235 123.622 37.4035 123.622 32.8146Z" fill="#61259E"/>
<path fill-rule="evenodd" clip-rule="evenodd" d="M0.96875 25.1447C0.96875 20.5558 5.13938 16.2891 9.70661 16.2891H12.8744V22.1562H9.70661C8.12281 22.1562 6.83889 23.5534 6.83889 25.1447C6.83889 26.736 7.89221 28.0541 9.47601 28.0541L13.6366 28.6215L13.8748 33.4536H9.70661C5.13938 33.4536 0.96875 29.7336 0.96875 25.1447Z" fill="#61259E"/>
<path fill-rule="evenodd" clip-rule="evenodd" d="M148.049 18.9107V18.3721L153.776 18.5281V19.0667C153.776 25.0137 148.972 29.8347 143.046 29.8347H134.021V23.9323H143.046C145.981 23.9323 148.049 21.8564 148.049 18.9107Z" fill="#61259E"/>
<path d="M222.776 45.9999C222.776 39.9 220.353 34.0498 216.04 29.7366C211.726 25.4232 205.876 23 199.776 23C193.677 23 187.826 25.4232 183.512 29.7366C179.2 34.0498 176.776 39.9 176.776 45.9999H184.99C184.99 42.0781 186.547 38.3171 189.32 35.5441C192.093 32.771 195.855 31.2132 199.776 31.2132C203.698 31.2132 207.46 32.771 210.233 35.5441C213.006 38.3171 214.562 42.0781 214.562 45.9999H222.776Z" fill="#61259E"/>
<path d="M222.776 0C222.776 6.09987 220.353 11.9501 216.04 16.2633C211.726 20.5765 205.876 22.9999 199.776 22.9999C193.677 22.9999 187.826 20.5765 183.512 16.2633C179.2 11.9501 176.776 6.09987 176.776 0H184.997C184.997 3.91949 186.554 7.67845 189.326 10.4498C192.097 13.2214 195.856 14.7784 199.776 14.7784C203.696 14.7784 207.455 13.2214 210.227 10.4498C212.998 7.67845 214.555 3.91949 214.555 0H222.776Z" fill="#995AD8"/>
</svg>
