<svg width="360" height="246" viewBox="0 0 360 246" fill="none" xmlns="http://www.w3.org/2000/svg">
<g clip-path="url(#clip0_8039_4849)">
<path d="M-77.7204 18.8702C-78.6385 18.1428 -79.6826 19.0709 -80.6108 19.3051C-79.1138 26.9403 -78.2228 35.1113 -81.2296 42.54C-80.7473 42.918 -79.7865 43.684 -79.3111 44.0652C-78.5219 43.437 -77.534 42.9507 -77.2165 41.9314C-75.5304 37.7047 -75.7757 33.0905 -75.3753 28.6462C-57.1601 53.2722 -38.0472 77.2702 -17.9666 100.392C4.96589 126.491 29.268 151.48 56.1967 173.492C68.3501 183.481 81.1439 192.669 94.497 200.999C105.13 207.432 116.076 213.456 127.656 218.04C141.52 223.125 156.933 226.034 171.5 222.126C182.038 219.299 191.391 213.16 198.17 204.62C202.656 199.234 205.677 192.856 208.553 186.544C218.87 197.711 232.598 205.163 247.611 207.746C263.124 210.252 279.028 208.86 293.886 203.694C312.27 196.437 367.382 149.686 384.108 139.287C383.559 138.182 383.014 137.084 382.468 136.003C367.851 145.393 314.531 190.549 298.649 197.69C281.03 207.175 267.089 206.896 252.223 205.708C237.968 204.676 226.447 199.029 215.682 189.673C213.401 187.54 211.481 184.952 209.879 182.225C212.112 173.545 213.441 164.497 212.242 155.544C211.835 150.305 209.579 145.439 206.98 140.956C204.569 137.901 200.947 135.467 196.889 135.339C193.229 135.753 191.338 139.441 190.998 142.742C190.263 148.971 191.619 155.298 193.609 161.184C195.883 169.295 200.595 176.529 205.666 183.2C201.369 195.68 193.558 208.061 181.86 214.748C172.95 219.957 162.32 221.67 152.139 220.738C137.331 219.548 122.723 213.947 109.789 207.013C82.4746 192.318 57.9709 172.972 35.234 152.034C-5.07771 114.623 -39.3609 70.8907 -72.3104 27.0077C-67.8403 28.8525 -63.3538 31.0059 -58.4541 31.3472C-57.4595 31.4403 -56.5672 30.873 -55.6486 30.6182C-55.9222 29.7851 -56.2462 28.9693 -56.6185 28.1754C-59.0302 27.4505 -61.5851 27.3239 -63.9538 26.4379C-68.9509 24.8098 -73.3812 21.8317 -77.7204 18.8702ZM198.784 139.272C202.86 140.731 206.205 143.563 207.577 147.503C210.618 157.284 210.948 172.312 207.352 180.245C199.797 172.204 196.11 161.722 194.182 152.346C193.527 148.386 193.834 144.704 195.331 140.847C195.43 140.5 195.603 140.179 195.838 139.906C196.074 139.632 196.366 139.413 196.694 139.263C197.023 139.113 197.38 139.036 197.741 139.038C198.101 139.039 198.457 139.119 198.784 139.272Z" fill="#E5D6F5"/>
<path fill-rule="evenodd" clip-rule="evenodd" d="M190.35 36.9731C211.878 38.9704 234.358 17.1532 253.222 27.7308C271.896 38.2015 269.628 65.9146 277.504 85.8425C284.891 104.531 301.344 121.38 298.076 141.212C294.814 161 271.211 169.714 260.852 186.878C247.404 209.161 246.669 223.973 221.5 230.5C195.96 237.124 189.269 222.374 165.134 211.702C145.692 203.106 121.299 212.753 103.592 200.984C83.8237 187.844 68.4321 167.19 63.2767 143.997C57.9638 120.096 65.3422 95.4463 75.1467 73.0147C85.0665 50.3195 95.9036 22.7137 119.517 15.3262C143.567 7.80208 165.261 34.6455 190.35 36.9731Z" fill="url(#paint0_linear_8039_4849)" fill-opacity="0.1"/>
<path d="M268.61 91.6377H101.803V221.694H268.61V91.6377Z" fill="#EBEBEB"/>
<path d="M268.608 221.693C268.608 221.693 268.59 220.87 268.58 219.299C268.573 217.72 268.564 215.396 268.551 212.364C268.536 206.289 268.515 197.387 268.486 186.033C268.455 163.343 268.41 130.86 268.355 91.6378L268.607 91.8899C221.115 91.9051 163.673 91.9227 101.814 91.9426H101.8L102.105 91.6378C102.093 138.523 102.082 182.865 102.073 221.694L101.799 221.419C151.281 221.476 192.948 221.523 222.257 221.557C236.923 221.588 248.495 221.613 256.413 221.629C260.368 221.643 263.407 221.654 265.47 221.662C266.492 221.669 267.269 221.674 267.805 221.679C268.334 221.682 268.608 221.693 268.608 221.693C268.608 221.693 268.354 221.703 267.839 221.709C267.311 221.713 266.544 221.718 265.534 221.725C263.483 221.732 260.462 221.744 256.532 221.758C248.628 221.775 237.078 221.8 222.437 221.831C193.085 221.864 151.357 221.912 101.801 221.968H101.527V221.694C101.517 182.865 101.507 138.523 101.495 91.6378V91.333H101.801H101.815C163.674 91.3529 221.116 91.3705 268.608 91.3858H268.862V91.6378C268.808 130.927 268.762 163.464 268.73 186.191C268.702 197.521 268.68 206.403 268.665 212.465C268.652 215.476 268.642 217.784 268.636 219.353C268.627 220.906 268.608 221.693 268.608 221.693Z" fill="#263238"/>
<path d="M98.8267 84.0029L85.2637 128.128H280.496L269.468 84.0029H98.8267Z" fill="#61259E"/>
<path d="M85.2637 128.128C85.2637 133.928 90.0563 138.629 95.9697 138.629C101.882 138.629 106.676 133.928 106.676 128.128H85.2637Z" fill="#61259E"/>
<path d="M106.991 128.128C106.991 133.928 111.784 138.629 117.697 138.629C123.609 138.629 128.403 133.928 128.403 128.128H106.991Z" fill="#61259E"/>
<path d="M128.718 128.128C128.718 133.928 133.51 138.629 139.424 138.629C145.336 138.629 150.13 133.928 150.13 128.128H128.718Z" fill="#61259E"/>
<path d="M150.446 128.128C150.446 133.928 155.239 138.629 161.152 138.629C167.066 138.629 171.858 133.928 171.858 128.128H150.446Z" fill="#61259E"/>
<path d="M172.174 128.128C172.174 133.928 176.966 138.629 182.88 138.629C188.792 138.629 193.586 133.928 193.586 128.128H172.174Z" fill="#61259E"/>
<path d="M193.901 128.128C193.901 133.928 198.694 138.629 204.607 138.629C210.52 138.629 215.313 133.928 215.313 128.128H193.901Z" fill="#61259E"/>
<path d="M215.629 128.128C215.629 133.928 220.422 138.629 226.335 138.629C232.247 138.629 237.041 133.928 237.041 128.128H215.629Z" fill="#61259E"/>
<path d="M237.356 128.128C237.356 133.928 242.15 138.629 248.062 138.629C253.975 138.629 258.768 133.928 258.768 128.128H237.356Z" fill="#61259E"/>
<path d="M259.084 128.128C259.084 133.928 263.878 138.629 269.79 138.629C275.702 138.629 280.496 133.928 280.496 128.128H259.084Z" fill="#61259E"/>
<path d="M280.42 128.218C280.42 128.387 236.768 128.523 182.933 128.523C129.08 128.523 85.4375 128.386 85.4375 128.218C85.4375 128.049 129.08 127.913 182.933 127.913C236.768 127.913 280.42 128.049 280.42 128.218Z" fill="#263238"/>
<path d="M249.816 146.433H214.611V221.696H249.816V146.433Z" fill="white"/>
<path d="M249.815 146.433C249.821 146.427 249.827 146.544 249.833 146.779C249.838 147.04 249.844 147.387 249.851 147.834C249.859 148.8 249.872 150.182 249.887 151.963C249.906 155.613 249.933 160.893 249.967 167.526C250.001 180.911 250.049 199.752 250.105 221.696L250.106 221.986H249.817C238.908 221.99 227 221.996 214.618 222.002C213.997 221.396 214.445 221.821 214.307 221.681V221.66V221.617V221.532V221.361V221.02V220.337V218.975C214.307 218.069 214.307 217.165 214.307 216.263C214.307 214.461 214.308 212.671 214.308 210.893C214.309 207.336 214.31 203.829 214.313 200.381C214.319 193.485 214.324 186.822 214.329 180.458C214.351 167.738 214.373 156.218 214.389 146.434V146.21L214.612 146.211C225.49 146.262 234.307 146.303 240.434 146.331C243.444 146.355 245.791 146.373 247.416 146.387C248.187 146.398 248.786 146.406 249.217 146.412C249.621 146.417 249.815 146.433 249.815 146.433C249.815 146.433 249.589 146.448 249.172 146.456C248.73 146.462 248.118 146.47 247.329 146.481C245.693 146.494 243.329 146.512 240.298 146.537C234.203 146.565 225.433 146.606 214.612 146.657L214.834 146.434C214.852 156.217 214.872 167.737 214.895 180.458C214.9 186.822 214.906 193.484 214.912 200.381C214.913 203.829 214.914 207.336 214.917 210.893C214.917 212.671 214.918 214.461 214.918 216.263C214.918 217.165 214.918 218.069 214.918 218.975V220.337V221.02V221.361V221.532V221.617V221.66V221.681C214.784 221.549 215.218 222.006 214.618 221.391C227 221.397 238.908 221.402 249.817 221.408L249.527 221.697C249.583 199.831 249.631 181.057 249.665 167.722C249.699 161.061 249.726 155.759 249.745 152.093C249.76 150.286 249.773 148.884 249.781 147.904C249.788 147.443 249.794 147.085 249.799 146.815C249.804 146.568 249.81 146.439 249.815 146.433Z" fill="#263238"/>
<path d="M222.816 176.453H218.133V191.673H222.816V176.453Z" fill="#E0E0E0"/>
<path d="M240.688 171.895H225.515C224.461 171.895 223.606 171.041 223.606 169.987V164.443C223.606 163.389 224.461 162.534 225.515 162.534H240.688C241.742 162.534 242.596 163.389 242.596 164.443V169.987C242.596 171.041 241.742 171.895 240.688 171.895Z" fill="#61259E"/>
<path d="M240.688 171.895C240.687 171.867 240.878 171.868 241.206 171.758C241.523 171.645 242.002 171.378 242.282 170.796C242.583 170.235 242.4 169.378 242.427 168.421C242.414 167.445 242.399 166.354 242.382 165.16C242.376 164.536 242.428 163.944 242.052 163.474C241.703 162.992 241.13 162.731 240.45 162.787C239.023 162.796 237.506 162.806 235.913 162.815C232.708 162.822 229.199 162.83 225.518 162.84C224.733 162.828 224.015 163.459 223.929 164.219C223.893 165.032 223.917 165.979 223.907 166.829C223.905 167.698 223.902 168.552 223.9 169.39L223.899 170.01C223.899 170.186 223.933 170.359 223.988 170.523C224.096 170.854 224.324 171.135 224.601 171.332C224.886 171.526 225.212 171.623 225.559 171.621C225.948 171.623 226.331 171.625 226.71 171.628C227.466 171.632 228.2 171.638 228.913 171.643C230.326 171.656 231.648 171.669 232.866 171.68C235.207 171.72 237.139 171.753 238.59 171.778C239.941 171.813 240.688 171.853 240.688 171.895C240.688 171.937 239.941 171.977 238.59 172.013C237.138 172.038 235.207 172.071 232.866 172.111C231.648 172.122 230.326 172.134 228.913 172.148C228.201 172.153 227.466 172.159 226.71 172.163C226.331 172.166 225.947 172.168 225.559 172.17C225.126 172.18 224.662 172.053 224.283 171.796C223.907 171.537 223.599 171.16 223.446 170.712C223.369 170.49 223.322 170.255 223.32 170.017L223.316 169.388C223.314 168.551 223.311 167.697 223.309 166.828C223.317 165.94 223.282 165.114 223.328 164.135C223.445 163.085 224.432 162.212 225.518 162.229C229.2 162.237 232.708 162.245 235.913 162.253C237.506 162.263 239.023 162.272 240.45 162.282C241.192 162.218 242.035 162.577 242.435 163.201C242.651 163.503 242.771 163.857 242.81 164.208C242.833 164.572 242.811 164.847 242.814 165.16C242.797 166.354 242.782 167.445 242.769 168.421C242.76 168.896 242.751 169.341 242.744 169.759C242.756 170.167 242.675 170.597 242.496 170.904C242.143 171.543 241.59 171.795 241.243 171.876C240.879 171.953 240.687 171.908 240.688 171.895Z" fill="#263238"/>
<path d="M238.199 162.534C238.132 162.585 237.504 161.89 236.544 160.725C236.02 160.074 235.466 159.386 234.881 158.659C234.567 158.258 234.246 157.848 233.916 157.427C233.75 157.211 233.581 156.993 233.41 156.772C233.219 156.516 233.127 156.391 232.932 156.336C232.749 156.279 232.54 156.317 232.392 156.428C232.265 156.509 232.116 156.792 231.957 157.006C231.655 157.448 231.359 157.877 231.071 158.297C230.533 159.059 230.024 159.781 229.542 160.463C228.657 161.687 228.075 162.42 228.004 162.373C227.934 162.326 228.39 161.508 229.184 160.223C229.631 159.517 230.104 158.772 230.604 157.984C230.882 157.557 231.167 157.121 231.46 156.673C231.627 156.457 231.705 156.208 232.027 155.943C232.327 155.714 232.737 155.638 233.106 155.751C233.491 155.843 233.758 156.214 233.892 156.402C234.061 156.625 234.227 156.846 234.391 157.062C234.711 157.492 235.023 157.909 235.328 158.317C235.877 159.072 236.396 159.786 236.886 160.462C237.759 161.696 238.266 162.483 238.199 162.534Z" fill="#263238"/>
<path d="M227.229 166.976C227.229 166.149 227.878 165.543 228.76 165.543C229.641 165.543 230.291 166.149 230.291 166.976C230.291 167.802 229.641 168.408 228.76 168.408C227.877 168.408 227.229 167.801 227.229 166.976ZM229.503 166.976C229.503 166.5 229.177 166.189 228.76 166.189C228.342 166.189 228.016 166.5 228.016 166.976C228.016 167.452 228.342 167.762 228.76 167.762C229.176 167.762 229.503 167.452 229.503 166.976Z" fill="white"/>
<path d="M233.185 166.617C233.185 167.243 232.713 167.632 231.961 167.632H231.481V168.352H230.701V165.597H231.96C232.713 165.598 233.185 165.987 233.185 166.617ZM232.398 166.617C232.398 166.361 232.236 166.211 231.913 166.211H231.48V167.018H231.913C232.237 167.018 232.398 166.869 232.398 166.617Z" fill="white"/>
<path d="M235.777 167.75V168.353H233.564V165.598H235.725V166.2H234.336V166.665H235.56V167.247H234.336V167.751H235.777V167.75Z" fill="white"/>
<path d="M238.834 165.598V168.353H238.193L236.977 166.885V168.353H236.214V165.598H236.855L238.071 167.065V165.598H238.834Z" fill="white"/>
<path d="M226.222 199.468C226.086 199.368 229.145 194.95 233.055 189.601C236.964 184.251 240.245 179.994 240.381 180.094C240.517 180.193 237.458 184.611 233.548 189.961C229.638 195.311 226.358 199.568 226.222 199.468Z" fill="#263238"/>
<path d="M232.815 197.831C232.684 197.707 235.13 195.023 237.838 191.472C240.559 187.929 242.511 184.869 242.665 184.962C242.734 185.004 242.333 185.825 241.576 187.09C240.818 188.355 239.69 190.055 238.322 191.843C236.953 193.629 235.607 195.162 234.584 196.223C233.561 197.286 232.873 197.887 232.815 197.831Z" fill="#263238"/>
<path d="M123.207 153.515H106.991V159.818H123.207V153.515Z" fill="#F5F5F5"/>
<path d="M115.394 159.816H102.096V166.12H115.394V159.816Z" fill="#E0E0E0"/>
<path d="M162.833 199.521H146.617V205.824H162.833V199.521Z" fill="#F5F5F5"/>
<path d="M206.854 183.479H199.097V189.782H206.854V183.479Z" fill="#E0E0E0"/>
<path d="M265.271 177.395H250.097V183.698H265.271V177.395Z" fill="#E0E0E0"/>
<path d="M200.927 208.619H185.412V214.923H200.927V208.619Z" fill="#E0E0E0"/>
<path d="M120.641 202.672H105.126V208.976H120.641V202.672Z" fill="#F5F5F5"/>
<path d="M214.219 149.689H205.733V155.993H214.219V149.689Z" fill="#F5F5F5"/>
<path d="M154.112 205.823H138.101V212.127H154.112V205.823Z" fill="#E0E0E0"/>
<path d="M199.096 146.431H123.208V199.521H199.096V146.431Z" fill="white"/>
<path d="M199.096 199.521C199.096 199.521 199.079 199.178 199.069 198.538C199.062 197.876 199.054 196.935 199.041 195.716C199.027 193.229 199.005 189.616 198.978 185.004C198.947 175.762 198.903 162.523 198.849 146.431L199.095 146.677C177.988 146.693 151.679 146.713 123.213 146.736H123.207L123.512 146.431C123.502 165.413 123.493 183.433 123.485 199.521L123.207 199.243C145.565 199.3 164.499 199.348 177.868 199.381C184.548 199.412 189.837 199.438 193.482 199.454C195.281 199.468 196.674 199.48 197.641 199.488C198.101 199.495 198.455 199.5 198.72 199.505C198.964 199.509 199.09 199.515 199.096 199.521C199.102 199.527 198.986 199.532 198.753 199.538C198.496 199.541 198.151 199.547 197.706 199.554C196.752 199.562 195.378 199.573 193.601 199.588C189.972 199.606 184.704 199.63 178.051 199.662C164.637 199.696 145.64 199.743 123.208 199.799L122.93 199.8V199.521C122.922 183.434 122.913 165.413 122.903 146.431V146.126H123.209H123.215C151.681 146.148 177.99 146.168 199.097 146.185H199.345L199.344 146.431C199.29 162.587 199.245 175.879 199.215 185.159C199.188 189.747 199.167 193.342 199.151 195.814C199.14 197.014 199.13 197.94 199.123 198.589C199.114 199.213 199.096 199.521 199.096 199.521Z" fill="#263238"/>
<path d="M160.704 185.34C160.672 185.311 160.939 184.945 161.45 184.304C161.96 183.663 162.718 182.752 163.666 181.637C165.564 179.407 168.238 176.373 171.264 173.088C174.293 169.802 177.099 166.889 179.166 164.816C180.199 163.78 181.045 162.951 181.643 162.389C182.24 161.828 182.583 161.531 182.614 161.561C182.644 161.59 182.357 161.943 181.813 162.555C181.172 163.258 180.392 164.112 179.477 165.114C177.389 167.37 174.693 170.281 171.712 173.501C168.747 176.734 166.066 179.657 163.987 181.922C163.062 182.916 162.276 183.763 161.626 184.459C161.062 185.054 160.735 185.368 160.704 185.34Z" fill="#263238"/>
<path d="M149.978 184.4C149.86 184.28 154.089 179.903 159.425 174.624C164.761 169.342 169.184 165.16 169.302 165.28C169.42 165.399 165.192 169.777 159.854 175.057C154.519 180.335 150.096 184.519 149.978 184.4Z" fill="#263238"/>
<path d="M147.432 174.63C147.308 174.515 149.345 172.113 151.981 169.263C154.618 166.413 156.856 164.196 156.979 164.31C157.102 164.425 155.065 166.827 152.429 169.677C149.794 172.527 147.556 174.745 147.432 174.63Z" fill="#263238"/>
<path d="M106.676 128.125C106.511 128.094 108.262 118.19 110.588 106.006C112.915 93.8198 114.935 83.9684 115.1 84.0001C115.266 84.0317 113.514 93.9335 111.188 106.12C108.862 118.303 106.841 128.156 106.676 128.125Z" fill="#263238"/>
<path d="M128.593 128.125C128.428 128.094 130.179 118.19 132.505 106.006C134.832 93.8198 136.852 83.9684 137.017 84.0001C137.183 84.0317 135.431 93.9335 133.105 106.12C130.779 118.303 128.758 128.156 128.593 128.125Z" fill="#263238"/>
<path d="M150.51 128.125C150.345 128.094 152.096 118.19 154.422 106.006C156.749 93.8198 158.769 83.9684 158.934 84.0001C159.1 84.0317 157.348 93.9335 155.022 106.12C152.696 118.303 150.676 128.156 150.51 128.125Z" fill="#263238"/>
<path d="M172.428 128.127C172.261 128.105 173.424 118.307 175.025 106.245C176.628 94.1791 178.061 84.4192 178.228 84.4414C178.394 84.4637 177.233 94.26 175.63 106.326C174.03 118.387 172.596 128.148 172.428 128.127Z" fill="#263238"/>
<path d="M194.344 128.128C194.176 128.11 195.103 118.314 196.415 106.253C197.727 94.1873 198.927 84.4238 199.094 84.4414C199.262 84.4602 198.335 94.2529 197.021 106.319C195.711 118.38 194.511 128.146 194.344 128.128Z" fill="#263238"/>
<path d="M216.262 128.128C216.094 128.118 216.597 118.329 217.385 106.266C218.174 94.2002 218.949 84.4309 219.118 84.4414C219.285 84.452 218.783 94.24 217.994 106.306C217.207 118.367 216.431 128.139 216.262 128.128Z" fill="#263238"/>
<path d="M238.18 128.128C238.011 128.137 237.349 118.386 236.699 106.35C236.05 94.3099 235.66 84.5465 235.828 84.5371C235.996 84.5277 236.66 94.2771 237.309 106.317C237.957 118.352 238.348 128.119 238.18 128.128Z" fill="#263238"/>
<path d="M260.098 128.128C259.931 128.157 258.046 118.423 255.885 106.388C253.725 94.3475 252.108 84.5677 252.274 84.5372C252.441 84.5067 254.326 94.2397 256.487 106.28C258.646 118.314 260.263 128.097 260.098 128.128Z" fill="#263238"/>
<path d="M296.451 221.693C296.451 221.862 248.329 221.998 188.981 221.998C129.613 221.998 81.5 221.861 81.5 221.693C81.5 221.525 129.611 221.389 188.981 221.389C248.328 221.389 296.451 221.526 296.451 221.693Z" fill="#263238"/>
</g>
<defs>
<linearGradient id="paint0_linear_8039_4849" x1="61.5" y1="135.5" x2="298.5" y2="135.5" gradientUnits="userSpaceOnUse">
<stop stop-color="#995AD8"/>
<stop offset="1" stop-color="#1B96FF"/>
</linearGradient>
<clipPath id="clip0_8039_4849">
<rect width="360" height="246" fill="white"/>
</clipPath>
</defs>
</svg>
