<svg width="360" height="153" viewBox="0 0 360 153" fill="none" xmlns="http://www.w3.org/2000/svg">
<g clip-path="url(#clip0_8039_5028)">
<path d="M-98.7956 -56.205C-99.7137 -56.9324 -100.758 -56.0043 -101.686 -55.7701C-100.189 -48.1349 -99.298 -39.9638 -102.305 -32.5352C-101.823 -32.1572 -100.862 -31.3912 -100.386 -31.01C-99.5971 -31.6382 -98.6092 -32.1245 -98.2917 -33.1438C-96.6056 -37.3705 -96.8509 -41.9847 -96.4505 -46.429C-78.2353 -21.803 -59.1224 2.19498 -39.0418 25.3165C-16.1093 51.4159 8.19281 76.4046 35.1215 98.4163C47.2749 108.406 60.0687 117.594 73.4218 125.924C84.0545 132.357 95.0004 138.38 106.581 142.965C120.445 148.05 135.858 150.959 150.425 147.051C160.963 144.224 170.315 138.085 177.095 129.545C181.581 124.159 184.602 117.781 187.478 111.469C197.794 122.636 211.522 130.088 226.536 132.671C242.049 135.177 257.953 133.784 272.811 128.618C291.195 121.362 346.306 74.611 363.032 64.2116C362.484 63.1067 361.939 62.0086 361.393 60.9274C346.776 70.3179 293.455 115.473 277.574 122.615C259.955 132.099 246.014 131.821 231.148 130.633C216.892 129.601 205.372 123.954 194.607 114.598C192.326 112.465 190.405 109.877 188.804 107.15C191.037 98.4698 192.366 89.4222 191.166 80.4689C190.76 75.2297 188.504 70.3642 185.905 65.8805C183.493 62.8254 179.872 60.3917 175.814 60.2639C172.153 60.6774 170.262 64.3657 169.922 67.6671C169.188 73.8957 170.544 80.2224 172.533 86.1089C174.808 94.2197 179.52 101.454 184.591 108.124C180.294 120.605 172.483 132.986 160.785 139.673C151.875 144.882 141.245 146.594 131.064 145.663C116.256 144.473 101.647 138.872 88.7139 131.937C61.3994 117.243 36.8958 97.8968 14.1588 76.9587C-26.1529 39.5474 -60.436 -4.18451 -93.3856 -48.0675C-88.9154 -46.2227 -84.429 -44.0692 -79.5293 -43.728C-78.5347 -43.6349 -77.6424 -44.2022 -76.7238 -44.457C-76.9974 -45.2901 -77.3214 -46.1059 -77.6937 -46.8998C-80.1054 -47.6247 -82.6603 -47.7513 -85.029 -48.6373C-90.0261 -50.2654 -94.4564 -53.2435 -98.7956 -56.205ZM177.709 64.1965C181.785 65.6559 185.13 68.4882 186.502 72.4276C189.543 82.2092 189.872 97.2364 186.276 105.169C178.721 97.1286 175.034 86.6466 173.107 77.2711C172.452 73.3109 172.759 69.6284 174.256 65.7716C174.354 65.4251 174.528 65.104 174.763 64.8305C174.998 64.5571 175.291 64.3378 175.619 64.188C175.948 64.0381 176.305 63.9613 176.665 63.9627C177.026 63.9642 177.382 64.044 177.709 64.1965Z" fill="#E5D6F5"/>
</g>
<g clip-path="url(#clip1_8039_5028)">
<path d="M293.344 45.9999C293.344 39.9 290.92 34.0498 286.608 29.7366C282.294 25.4232 276.443 23 270.344 23C264.244 23 258.394 25.4232 254.08 29.7366C249.767 34.0498 247.344 39.9 247.344 45.9999H255.558C255.558 42.0781 257.114 38.3171 259.887 35.5441C262.66 32.771 266.422 31.2132 270.344 31.2132C274.265 31.2132 278.027 32.771 280.8 35.5441C283.573 38.3171 285.13 42.0781 285.13 45.9999H293.344Z" fill="#61259E"/>
<path d="M293.344 0C293.344 6.09987 290.92 11.9501 286.608 16.2633C282.294 20.5765 276.443 22.9999 270.344 22.9999C264.244 22.9999 258.394 20.5765 254.08 16.2633C249.767 11.9501 247.344 6.09987 247.344 0H255.565C255.565 3.91949 257.122 7.67845 259.893 10.4498C262.665 13.2214 266.424 14.7784 270.344 14.7784C274.264 14.7784 278.023 13.2214 280.794 10.4498C283.566 7.67845 285.123 3.91949 285.123 0H293.344Z" fill="#995AD8"/>
</g>
<path fill-rule="evenodd" clip-rule="evenodd" d="M113.562 27.2652H113.754C114.268 27.2652 114.749 27.1689 115.199 26.9764C115.661 26.7838 116.059 26.5207 116.393 26.1869C116.739 25.8403 117.009 25.4423 117.201 24.993C117.407 24.5438 117.509 24.0624 117.509 23.5489V4.3125H123.209V23.5489C123.209 24.0624 123.312 24.5438 123.517 24.993C123.723 25.4423 123.992 25.8403 124.326 26.1869C124.673 26.5207 125.071 26.7838 125.52 26.9764C125.982 27.1689 126.477 27.2652 127.003 27.2652H127.195H152.768V32.9649H127.195H127.003H126.733V32.9615C125.526 32.931 124.396 32.6946 123.344 32.2524C122.214 31.7646 121.226 31.0971 120.379 30.2498C119.531 31.0971 118.536 31.7646 117.394 32.2524C116.315 32.7062 115.159 32.9432 113.928 32.9635V32.9649L113.843 32.9645L113.754 32.9649H113.562V32.958C112.415 32.9147 111.337 32.6667 110.327 32.2139C109.21 31.7133 108.228 31.0522 107.38 30.2306C106.803 30.8083 106.148 31.3089 105.416 31.7325C104.556 32.2203 103.657 32.5733 102.72 32.7916C101.783 32.997 100.852 33.0547 99.9281 32.9649H81.5958V32.9841H81.4225C80.113 32.9841 78.887 32.7338 77.7445 32.2332C76.6019 31.7325 75.6006 31.0522 74.7404 30.1921C73.8803 29.332 73.1999 28.3307 72.6992 27.1882C72.2114 26.0457 72.6993 24.8454 72.6993 23.5489C72.6993 22.2395 73.749 21.6618 74.2369 20.5065C74.7375 19.3511 74.8897 19.6592 75.7498 18.812C76.6099 17.9519 76.7945 17.673 77.937 17.1724C79.0796 16.6717 80.113 16.7902 81.4225 16.7902H81.5958V19.6977H81.4225C80.909 19.6977 80.4211 19.8004 79.959 20.0058C79.5097 20.1984 79.1117 20.468 78.7651 20.8146C78.4184 21.1612 78.1424 21.5655 77.937 22.0277C77.7445 22.4898 77.6482 22.9905 77.6482 23.5296C77.6482 24.0431 77.7445 24.5309 77.937 24.993C78.1296 25.4423 78.3928 25.8403 78.7265 26.1869C79.0732 26.5207 79.4711 26.7902 79.9205 26.9956C80.3698 27.1882 80.8576 27.2845 81.384 27.2845V27.3037H91.9751C91.513 26.2126 91.2562 25.0893 91.2048 23.934C91.1663 22.7787 91.3204 21.6682 91.667 20.6028C92.0136 19.5244 92.5464 18.5296 93.2653 17.6181C93.9842 16.7067 94.8764 15.9429 95.942 15.3267C97.0589 14.672 98.2399 14.2741 99.4852 14.1329C100.73 13.9917 101.937 14.0815 103.105 14.4025C104.287 14.7105 105.378 15.2433 106.379 16.0007C107.393 16.7452 108.228 17.6823 108.882 18.812C109.332 19.5951 109.659 20.4038 109.865 21.2382C110.07 22.0598 110.16 22.8942 110.134 23.7414C110.173 24.2292 110.301 24.6914 110.519 25.1278C110.737 25.5515 111.014 25.9237 111.347 26.2447C111.681 26.5656 112.066 26.8223 112.503 27.0149C112.841 27.1599 113.194 27.2504 113.562 27.2861V27.2652ZM100.949 27.3037C101.539 27.2267 102.085 27.0341 102.586 26.7261C103.086 26.4051 103.503 25.9622 103.837 25.3974C104.094 24.961 104.248 24.4988 104.299 24.011C104.351 23.5104 104.312 23.029 104.184 22.5668C104.055 22.0919 103.837 21.6554 103.529 21.2575C103.234 20.8467 102.862 20.5065 102.412 20.2369C101.963 19.9802 101.488 19.8261 100.987 19.7748C100.487 19.7106 99.9987 19.7427 99.5237 19.871C99.0616 19.9866 98.6251 20.1984 98.2143 20.5065C97.8163 20.8017 97.4825 21.1804 97.2129 21.6426C96.9433 22.0919 96.7764 22.5668 96.7122 23.0675C96.6609 23.5681 96.6994 24.0559 96.8278 24.5309C96.9562 24.9931 97.168 25.4295 97.4633 25.8403C97.7585 26.2382 98.1308 26.5656 98.5801 26.8223C99.0808 27.1047 99.5751 27.2652 100.063 27.3037H100.949ZM100.358 5.19826C100.82 5.19826 101.25 5.28812 101.648 5.46784C102.046 5.64756 102.393 5.89146 102.688 6.19955C102.996 6.4948 103.234 6.84783 103.401 7.25861C103.58 7.6694 103.67 8.10586 103.67 8.56799C103.67 9.03013 103.58 9.46659 103.401 9.87738C103.234 10.2753 102.996 10.6283 102.688 10.9364C102.393 11.2317 102.046 11.4692 101.648 11.6489C101.25 11.8158 100.82 11.8992 100.358 11.8992C99.896 11.8992 99.4595 11.8158 99.0487 11.6489C98.6507 11.4692 98.2977 11.2317 97.9896 10.9364C97.6943 10.6283 97.4568 10.2753 97.2771 9.87738C97.1102 9.46659 97.0268 9.03013 97.0268 8.56799C97.0268 8.10586 97.1102 7.6694 97.2771 7.25861C97.4568 6.84783 97.6943 6.4948 97.9896 6.19955C98.2977 5.89146 98.6507 5.64756 99.0487 5.46784C99.4595 5.28812 99.896 5.19826 100.358 5.19826ZM134.397 14.9994C134 14.8197 133.569 14.7298 133.107 14.7298C132.645 14.7298 132.209 14.8197 131.798 14.9994C131.4 15.1791 131.047 15.423 130.739 15.7311C130.443 16.0263 130.206 16.3794 130.026 16.7902C129.859 17.2009 129.776 17.6374 129.776 18.0995C129.776 18.5617 129.859 18.9981 130.026 19.4089C130.206 19.8069 130.443 20.1599 130.739 20.468C131.047 20.7632 131.4 21.0007 131.798 21.1804C132.209 21.3473 132.645 21.4308 133.107 21.4308C133.569 21.4308 134 21.3473 134.397 21.1804C134.795 21.0007 135.142 20.7632 135.437 20.468C135.745 20.1599 135.983 19.8069 136.15 19.4089C136.33 18.9981 136.419 18.5617 136.419 18.0995C136.419 17.6374 136.33 17.2009 136.15 16.7902C135.983 16.3794 135.745 16.0263 135.437 15.7311C135.142 15.423 134.795 15.1791 134.397 14.9994ZM141.561 14.9994C141.163 14.8197 140.733 14.7298 140.271 14.7298C139.809 14.7298 139.372 14.8197 138.961 14.9994C138.563 15.1791 138.21 15.423 137.902 15.7311C137.607 16.0263 137.369 16.3794 137.19 16.7902C137.023 17.2009 136.939 17.6374 136.939 18.0995C136.939 18.5617 137.023 18.9981 137.19 19.4089C137.369 19.8069 137.607 20.1599 137.902 20.468C138.21 20.7632 138.563 21.0007 138.961 21.1804C139.372 21.3473 139.809 21.4308 140.271 21.4308C140.733 21.4308 141.163 21.3473 141.561 21.1804C141.959 21.0007 142.306 20.7632 142.601 20.468C142.909 20.1599 143.146 19.8069 143.313 19.4089C143.493 18.9981 143.583 18.5617 143.583 18.0995C143.583 17.6374 143.493 17.2009 143.313 16.7902C143.146 16.3794 142.909 16.0263 142.601 15.7311C142.306 15.423 141.959 15.1791 141.561 14.9994ZM148.936 14.9994C148.538 14.8197 148.108 14.7298 147.646 14.7298C147.184 14.7298 146.747 14.8197 146.337 14.9994C145.939 15.1791 145.586 15.423 145.277 15.7311C144.982 16.0263 144.745 16.3794 144.565 16.7902C144.398 17.2009 144.315 17.6374 144.315 18.0995C144.315 18.5617 144.398 18.9981 144.565 19.4089C144.745 19.8069 144.982 20.1599 145.277 20.468C145.586 20.7632 145.939 21.0007 146.337 21.1804C146.747 21.3473 147.184 21.4308 147.646 21.4308C148.108 21.4308 148.538 21.3473 148.936 21.1804C149.334 21.0007 149.681 20.7632 149.976 20.468C150.284 20.1599 150.522 19.8069 150.689 19.4089C150.868 18.9981 150.958 18.5617 150.958 18.0995C150.958 17.6374 150.868 17.2009 150.689 16.7902C150.522 16.3794 150.284 16.0263 149.976 15.7311C149.681 15.423 149.334 15.1791 148.936 14.9994ZM172.121 25.0508C172.224 24.8069 172.301 24.563 172.352 24.3191C172.404 24.0624 172.429 23.8056 172.429 23.5489C172.429 23.0097 172.327 22.5091 172.121 22.0469C171.929 21.5848 171.659 21.1869 171.312 20.8531C170.966 20.5065 170.561 20.2369 170.099 20.0444C169.637 19.839 169.149 19.7363 168.636 19.7363C168.109 19.7363 167.615 19.839 167.153 20.0444C166.691 20.2369 166.286 20.5065 165.94 20.8531C165.593 21.1869 165.317 21.5848 165.112 22.0469C164.919 22.5091 164.823 23.0097 164.823 23.5489C164.823 24.0752 164.919 24.5694 165.112 25.0316C165.317 25.4937 165.593 25.8981 165.94 26.2447C166.286 26.5913 166.691 26.8673 167.153 27.0727C167.615 27.2652 168.109 27.3615 168.636 27.3615C169.252 27.3615 169.823 27.2203 170.35 26.9379C170.876 26.6426 171.306 26.2639 171.64 25.8018L172.121 25.0508ZM178.9 32.9456H174.278H174.085L169.656 40.6864L164.746 37.8558L167.577 32.9456C166.383 32.8173 165.272 32.4835 164.245 31.9443C163.218 31.3923 162.326 30.6991 161.569 29.8647C160.811 29.0175 160.214 28.0547 159.778 26.9764C159.354 25.8981 159.142 24.7556 159.142 23.5489C159.142 22.2395 159.393 21.0071 159.893 19.8518C160.394 18.6965 161.074 17.6952 161.934 16.8479C162.795 15.9878 163.802 15.3075 164.958 14.8068C166.113 14.3062 167.339 14.0558 168.636 14.0558C169.932 14.0558 171.158 14.3062 172.314 14.8068C173.469 15.3075 174.477 15.9878 175.337 16.8479C176.197 17.6952 176.878 18.6965 177.378 19.8518C177.879 21.0071 178.129 22.2395 178.129 23.5489C178.129 24.8583 177.873 26.097 177.359 27.2652H179.452C179.766 27.2206 180.07 27.1371 180.363 27.0149C180.825 26.8095 181.23 26.5399 181.576 26.2062C181.923 25.8596 182.199 25.4616 182.404 25.0123C182.61 24.5502 182.712 24.0559 182.712 23.5296V21.6618H188.393V23.5296C188.393 24.8262 188.143 26.0521 187.642 27.2074C187.141 28.3499 186.461 29.3512 185.601 30.2113C184.741 31.0586 183.733 31.7325 182.578 32.2332C181.618 32.6381 180.611 32.875 179.554 32.9438V32.9456H179.525C179.318 32.9585 179.11 32.9649 178.9 32.9649V32.9456ZM180.228 7.35489C179.83 7.17517 179.4 7.08531 178.938 7.08531C178.476 7.08531 178.039 7.17517 177.629 7.35489C177.231 7.53461 176.878 7.77851 176.569 8.0866C176.274 8.38186 176.043 8.73488 175.876 9.14566C175.697 9.55645 175.607 9.99291 175.607 10.455C175.607 10.9172 175.697 11.3536 175.876 11.7644C176.043 12.1624 176.274 12.5154 176.569 12.8235C176.878 13.1187 177.231 13.3562 177.629 13.5359C178.039 13.7028 178.476 13.7863 178.938 13.7863C179.4 13.7863 179.83 13.7028 180.228 13.5359C180.626 13.3562 180.973 13.1187 181.268 12.8235C181.576 12.5154 181.814 12.1624 181.981 11.7644C182.16 11.3536 182.25 10.9172 182.25 10.455C182.25 9.99291 182.16 9.55645 181.981 9.14566C181.814 8.73488 181.576 8.38186 181.268 8.0866C180.973 7.77851 180.626 7.53461 180.228 7.35489ZM188.046 7.35489C187.648 7.17517 187.218 7.08531 186.756 7.08531C186.294 7.08531 185.858 7.17517 185.447 7.35489C185.049 7.53461 184.696 7.77851 184.388 8.0866C184.092 8.38186 183.855 8.73488 183.675 9.14566C183.508 9.55645 183.425 9.99291 183.425 10.455C183.425 10.9172 183.508 11.3536 183.675 11.7644C183.855 12.1624 184.092 12.5154 184.388 12.8235C184.696 13.1187 185.049 13.3562 185.447 13.5359C185.858 13.7028 186.294 13.7863 186.756 13.7863C187.218 13.7863 187.648 13.7028 188.046 13.5359C188.444 13.3562 188.791 13.1187 189.086 12.8235C189.394 12.5154 189.632 12.1624 189.799 11.7644C189.979 11.3536 190.068 10.9172 190.068 10.455C190.068 9.99291 189.979 9.55645 189.799 9.14566C189.632 8.73488 189.394 8.38186 189.086 8.0866C188.791 7.77851 188.444 7.53461 188.046 7.35489Z" fill="#61259E"/>
<path d="M178.947 32.9785H174.325H174.133L169.704 40.7192L164.793 37.8887L167.624 32.9785C166.43 32.8501 165.319 32.5163 164.292 31.9772C163.265 31.4252 162.373 30.732 161.616 29.8976C160.858 29.0503 160.261 28.0875 159.825 27.0092C159.401 25.9309 159.189 24.7884 159.189 23.5817C159.189 22.2723 159.44 21.04 159.94 19.8846C160.441 18.7293 161.122 17.728 161.982 16.8808C162.842 16.0207 163.85 15.3403 165.005 14.8397C166.16 14.339 167.386 14.0887 168.683 14.0887C169.98 14.0887 171.206 14.339 172.361 14.8397C173.516 15.3403 174.524 16.0207 175.384 16.8808C176.244 17.728 176.925 18.7293 177.425 19.8846C177.926 21.04 178.176 22.2723 178.176 23.5817C178.176 24.8911 177.92 26.1299 177.406 27.2981H179.499C179.813 27.2534 180.117 27.17 180.41 27.0477C180.872 26.8424 181.277 26.5728 181.623 26.239C181.97 25.8924 182.246 25.4945 182.451 25.0452C182.657 24.583 182.76 24.0888 182.76 23.5625V21.6947H188.44V23.5625C188.44 24.859 188.19 26.085 187.689 27.2403C187.189 28.3828 186.508 29.3841 185.648 30.2442C184.788 31.0914 183.78 31.7654 182.625 32.266C181.666 32.671 180.658 32.9078 179.601 32.9766V32.9785H179.572C179.366 32.9913 179.157 32.9977 178.947 32.9977V32.9785Z" fill="#995AD8"/>
<path d="M180.275 7.38774C179.877 7.20802 179.447 7.11816 178.985 7.11816C178.523 7.11816 178.087 7.20802 177.676 7.38774C177.278 7.56746 176.925 7.81137 176.617 8.11946C176.321 8.41471 176.09 8.76773 175.923 9.17852C175.744 9.5893 175.654 10.0258 175.654 10.4879C175.654 10.95 175.744 11.3865 175.923 11.7973C176.09 12.1952 176.321 12.5483 176.617 12.8563C176.925 13.1516 177.278 13.3891 177.676 13.5688C178.087 13.7357 178.523 13.8191 178.985 13.8191C179.447 13.8191 179.877 13.7357 180.275 13.5688C180.673 13.3891 181.02 13.1516 181.315 12.8563C181.623 12.5483 181.861 12.1952 182.028 11.7973C182.208 11.3865 182.297 10.95 182.297 10.4879C182.297 10.0258 182.208 9.5893 182.028 9.17852C181.861 8.76773 181.623 8.41471 181.315 8.11946C181.02 7.81137 180.673 7.56746 180.275 7.38774Z" fill="#995AD8"/>
<path d="M188.094 7.38774C187.696 7.20802 187.266 7.11816 186.803 7.11816C186.341 7.11816 185.905 7.20802 185.494 7.38774C185.096 7.56746 184.743 7.81137 184.435 8.11946C184.14 8.41471 183.902 8.76773 183.722 9.17852C183.556 9.5893 183.472 10.0258 183.472 10.4879C183.472 10.95 183.556 11.3865 183.722 11.7973C183.902 12.1952 184.14 12.5483 184.435 12.8563C184.743 13.1516 185.096 13.3891 185.494 13.5688C185.905 13.7357 186.341 13.8191 186.803 13.8191C187.266 13.8191 187.696 13.7357 188.094 13.5688C188.492 13.3891 188.838 13.1516 189.134 12.8563C189.442 12.5483 189.679 12.1952 189.846 11.7973C190.026 11.3865 190.116 10.95 190.116 10.4879C190.116 10.0258 190.026 9.5893 189.846 9.17852C189.679 8.76773 189.442 8.41471 189.134 8.11946C188.838 7.81137 188.492 7.56746 188.094 7.38774Z" fill="#995AD8"/>
<path d="M172.357 23.537C172.357 25.6053 170.68 27.282 168.611 27.282C166.543 27.282 164.866 25.6053 164.866 23.537C164.866 21.4687 166.543 19.792 168.611 19.792C170.68 19.792 172.357 21.4687 172.357 23.537Z" fill="white"/>
<path d="M221.699 37.3952C221.699 39.1846 220.248 40.6352 218.459 40.6352C216.669 40.6352 215.219 39.1846 215.219 37.3952C215.219 35.6059 216.669 34.1553 218.459 34.1553C220.248 34.1553 221.699 35.6059 221.699 37.3952Z" fill="#61259E"/>
<path fill-rule="evenodd" clip-rule="evenodd" d="M194.622 32.3302C194.622 27.7413 198.793 23.4746 203.36 23.4746H206.528V29.3418H203.36C201.776 29.3418 200.492 30.7389 200.492 32.3302C200.492 33.9215 201.776 34.7434 203.36 34.7434H207.528V40.6392H203.36C198.793 40.6392 194.622 36.9191 194.622 32.3302Z" fill="#61259E"/>
<path fill-rule="evenodd" clip-rule="evenodd" d="M71.9688 24.6603C71.9688 20.0714 76.1394 15.8047 80.7066 15.8047H83.8744V21.6719H80.7066C79.1228 21.6719 77.8389 23.069 77.8389 24.6603C77.8389 26.2516 78.8922 27.5698 80.476 27.5698L84.6366 28.1371L84.8748 32.9692H80.7066C76.1394 32.9692 71.9688 29.2492 71.9688 24.6603Z" fill="#61259E"/>
<path fill-rule="evenodd" clip-rule="evenodd" d="M219.049 18.4263V17.8877L224.776 18.0437V18.5823C224.776 24.5293 219.972 29.3503 214.046 29.3503H205.021V23.4479H214.046C216.981 23.4479 219.049 21.372 219.049 18.4263Z" fill="#61259E"/>
<defs>
<clipPath id="clip0_8039_5028">
<rect width="360" height="120" fill="white" transform="translate(0 33)"/>
</clipPath>
<clipPath id="clip1_8039_5028">
<rect width="225.688" height="46" fill="white" transform="translate(67.6562)"/>
</clipPath>
</defs>
</svg>
