<svg width="81" height="17" viewBox="0 0 81 17" fill="none" xmlns="http://www.w3.org/2000/svg">
<path d="M11.8799 12.1078C11.8799 12.7223 11.7625 13.2989 11.5278 13.8375C11.293 14.376 10.9719 14.849 10.5645 15.2564C10.164 15.6569 9.6945 15.9745 9.15592 16.2093C8.61734 16.4441 8.04077 16.5614 7.42624 16.5614H0.731445C0.327479 16.5614 0 16.234 0 15.83V2.44041C0 2.03645 0.327479 1.70897 0.731445 1.70897H7.42624C8.04077 1.70897 8.61734 1.82635 9.15592 2.06112C9.6945 2.29588 10.164 2.61696 10.5645 3.02435C10.9719 3.42484 11.293 3.89437 11.5278 4.43296C11.7625 4.97154 11.8799 5.5481 11.8799 6.16264C11.8799 6.43883 11.8419 6.72194 11.766 7.01194C11.69 7.30195 11.583 7.5816 11.4449 7.85089C11.3068 8.12018 11.1411 8.36531 10.9477 8.58626C10.7544 8.80722 10.5404 8.9902 10.3056 9.1352C10.5473 9.2664 10.7648 9.44592 10.9581 9.67379C11.1514 9.89474 11.3172 10.1399 11.4553 10.4092C11.5934 10.6785 11.6969 10.9616 11.766 11.2585C11.8419 11.5485 11.8799 11.8316 11.8799 12.1078ZM2.97257 13.5889H7.42624C7.63338 13.5889 7.82672 13.5509 8.00625 13.4749C8.18578 13.399 8.34114 13.2954 8.47233 13.1642C8.61043 13.0261 8.71745 12.8673 8.79341 12.6878C8.86936 12.5083 8.90734 12.3149 8.90734 12.1078C8.90734 11.9006 8.86936 11.7073 8.79341 11.5278C8.71745 11.3482 8.61043 11.1929 8.47233 11.0617C8.34114 10.9236 8.18578 10.8166 8.00625 10.7406C7.82672 10.6646 7.63338 10.6267 7.42624 10.6267H2.97257V13.5889ZM2.97257 7.6541H7.42624C7.63338 7.6541 7.82672 7.61612 8.00625 7.54017C8.18578 7.46421 8.34114 7.36064 8.47233 7.22945C8.61043 7.09135 8.71745 6.93254 8.79341 6.75301C8.86936 6.56658 8.90734 6.36978 8.90734 6.16264C8.90734 5.95549 8.86936 5.76215 8.79341 5.58262C8.71745 5.4031 8.61043 5.24774 8.47233 5.11654C8.34114 4.97844 8.18578 4.87142 8.00625 4.79546C7.82672 4.71951 7.63338 4.68153 7.42624 4.68153H2.97257V7.6541Z" fill="#61259E"/>
<path d="M29.9601 6.16264C29.9601 5.5481 30.0775 4.97154 30.3123 4.43296C30.547 3.89437 30.8647 3.42484 31.2651 3.02435C31.6725 2.61696 32.1455 2.29588 32.6841 2.06112C33.2227 1.82635 33.7992 1.70897 34.4138 1.70897H40.6264C40.9592 1.70897 41.2289 1.97875 41.2289 2.31154V4.07896C41.2289 4.41175 40.9592 4.68153 40.6264 4.68153H34.4138C34.2066 4.68153 34.0133 4.71951 33.8338 4.79546C33.6542 4.87142 33.4954 4.97844 33.3573 5.11654C33.2261 5.24774 33.1226 5.4031 33.0466 5.58262C32.9707 5.76215 32.9327 5.95549 32.9327 6.16264C32.9327 6.36978 32.9707 6.56658 33.0466 6.75301C33.1226 6.93254 33.2261 7.09135 33.3573 7.22945C33.4954 7.36064 33.6542 7.46421 33.8338 7.54017C34.0133 7.61612 34.2066 7.6541 34.4138 7.6541H37.3864C38.0009 7.6541 38.5774 7.77148 39.116 8.00625C39.6615 8.23411 40.1345 8.55174 40.535 8.95913C40.9424 9.35961 41.26 9.8326 41.4879 10.3781C41.7226 10.9167 41.84 11.4932 41.84 12.1078C41.84 12.7223 41.7226 13.2989 41.4879 13.8375C41.26 14.376 40.9424 14.849 40.535 15.2564C40.1345 15.6569 39.6615 15.9745 39.116 16.2093C38.5774 16.4441 38.0009 16.5614 37.3864 16.5614H31.3913C31.0585 16.5614 30.7887 16.2917 30.7887 15.9589V14.1914C30.7887 13.8587 31.0585 13.5889 31.3913 13.5889H37.3864C37.5935 13.5889 37.7868 13.5509 37.9664 13.4749C38.1459 13.399 38.3013 13.2954 38.4324 13.1642C38.5705 13.0261 38.6776 12.8673 38.7535 12.6878C38.8295 12.5083 38.8675 12.3149 38.8675 12.1078C38.8675 11.9006 38.8295 11.7073 38.7535 11.5278C38.6776 11.3482 38.5705 11.1929 38.4324 11.0617C38.3013 10.9236 38.1459 10.8166 37.9664 10.7406C37.7868 10.6646 37.5935 10.6267 37.3864 10.6267H34.4138C33.7992 10.6267 33.2227 10.5093 32.6841 10.2745C32.1455 10.0397 31.6725 9.72212 31.2651 9.32164C30.8647 8.91425 30.547 8.44126 30.3123 7.90268C30.0775 7.35719 29.9601 6.77717 29.9601 6.16264Z" fill="#61259E"/>
<path d="M46.7246 15.9589C46.7246 16.2917 46.4548 16.5614 46.1221 16.5614H44.4996C44.1668 16.5614 43.8971 16.2917 43.8971 15.9589V1.65902C43.8971 1.32623 44.1668 1.05645 44.4996 1.05645H46.1221C46.4548 1.05645 46.7246 1.32623 46.7246 1.65902V5.95549C47.063 5.70001 47.4117 5.52048 47.7707 5.41691C48.1298 5.30643 48.4957 5.25119 48.8686 5.25119C49.5522 5.25119 50.1943 5.38238 50.7951 5.64477C51.3958 5.90025 51.9171 6.25585 52.359 6.71158C52.8078 7.1604 53.16 7.68862 53.4155 8.29626C53.6779 8.89698 53.8091 9.53914 53.8091 10.2227V15.9589C53.8091 16.2917 53.5393 16.5614 53.2065 16.5614H51.5634C51.2306 16.5614 50.9608 16.2917 50.9608 15.9589V10.2227H50.9815C50.9815 9.93272 50.9263 9.65998 50.8158 9.4045C50.7053 9.14211 50.5534 8.91425 50.3601 8.72091C50.1667 8.52757 49.9423 8.37566 49.6868 8.26518C49.4314 8.15471 49.1586 8.09947 48.8686 8.09947C48.5717 8.09947 48.292 8.15471 48.0296 8.26518C47.7673 8.37566 47.5394 8.52757 47.3461 8.72091C47.1527 8.91425 47.0008 9.14211 46.8903 9.4045C46.7799 9.65998 46.7246 9.93272 46.7246 10.2227V15.9589Z" fill="#61259E"/>
<path d="M70.5846 15.9589C70.5846 16.2917 70.3148 16.5614 69.982 16.5614H68.3389C68.0061 16.5614 67.7363 16.2917 67.7363 15.9589V1.65902C67.7363 1.32623 68.0061 1.05645 68.3389 1.05645H69.982C70.3148 1.05645 70.5846 1.32623 70.5846 1.65902V15.9589Z" fill="#61259E"/>
<path d="M76.7431 15.9589C76.7431 16.2917 76.4733 16.5614 76.1406 16.5614H74.5181C74.1853 16.5614 73.9156 16.2917 73.9156 15.9589V8.2859H73.1406C72.8078 8.2859 72.538 8.01612 72.538 7.68333V6.07126C72.538 5.73847 72.8078 5.46869 73.1406 5.46869H73.9156V4.94047C73.9156 4.25688 74.0433 3.61472 74.2988 3.014C74.5612 2.41327 74.9168 1.89195 75.3656 1.45003C75.8213 1.00121 76.3495 0.649062 76.9503 0.39358C77.551 0.131193 78.1931 0 78.8767 0H80.3974C80.7302 0 81 0.26978 81 0.60257V2.21464C81 2.54743 80.7302 2.81721 80.3974 2.81721H78.8767C78.5729 2.81721 78.2898 2.87245 78.0274 2.98292C77.772 3.0865 77.5475 3.23495 77.3542 3.42829C77.1678 3.61472 77.0193 3.83913 76.9088 4.10152C76.7984 4.357 76.7431 4.63665 76.7431 4.94047V5.46869H79.6103C79.9431 5.46869 80.2129 5.73847 80.2129 6.07126V7.68333C80.2129 8.01612 79.9431 8.2859 79.6103 8.2859H76.7431V15.9589Z" fill="#61259E"/>
<path d="M26.8945 6.19879C26.8945 5.58425 26.7771 5.00769 26.5424 4.46911C26.3076 3.93052 25.99 3.46099 25.5895 3.0605C25.1821 2.65311 24.7091 2.33204 24.1705 2.09727C23.632 1.8625 23.0554 1.74512 22.4409 1.74512H16.2283C15.8955 1.74512 15.6257 2.0149 15.6257 2.34769V4.11511C15.6257 4.4479 15.8955 4.71768 16.2283 4.71768H22.4409C22.648 4.71768 22.8413 4.75566 23.0209 4.83161C23.2004 4.90757 23.3592 5.01459 23.4973 5.15269C23.6285 5.28389 23.7321 5.43925 23.808 5.61877C23.884 5.7983 23.922 5.99164 23.922 6.19879C23.922 6.40593 23.884 6.60273 23.808 6.78916C23.7321 6.96869 23.6285 7.1275 23.4973 7.2656C23.3592 7.39679 23.2004 7.50036 23.0209 7.57632C22.8413 7.65227 22.648 7.69025 22.4409 7.69025H19.4683C18.8538 7.69025 18.2772 7.80763 17.7386 8.0424C17.1931 8.27026 16.7201 8.58789 16.3197 8.99528C15.9123 9.39576 15.5946 9.86875 15.3668 10.4142C15.132 10.9528 15.0146 11.5294 15.0146 12.1439C15.0146 12.7585 15.132 13.335 15.3668 13.8736C15.5946 14.4122 15.9123 14.8852 16.3197 15.2926C16.7201 15.693 17.1931 16.0107 17.7386 16.2454C18.2772 16.4802 18.8538 16.5976 19.4683 16.5976H25.4634C25.7962 16.5976 26.0659 16.3278 26.0659 15.995V14.2276C26.0659 13.8948 25.7962 13.625 25.4634 13.625H19.4683C19.2611 13.625 19.0678 13.587 18.8883 13.5111C18.7088 13.4351 18.5534 13.3316 18.4222 13.2004C18.2841 13.0623 18.1771 12.9035 18.1011 12.7239C18.0252 12.5444 17.9872 12.3511 17.9872 12.1439C17.9872 11.9368 18.0252 11.7434 18.1011 11.5639C18.1771 11.3844 18.2841 11.229 18.4222 11.0978C18.5534 10.9597 18.7088 10.8527 18.8883 10.7767C19.0678 10.7008 19.2611 10.6628 19.4683 10.6628H22.4409C23.0554 10.6628 23.632 10.5454 24.1705 10.3107C24.7091 10.0759 25.1821 9.75827 25.5895 9.35779C25.99 8.9504 26.3076 8.47741 26.5424 7.93883C26.7771 7.39334 26.8945 6.81332 26.8945 6.19879Z" fill="#995AD8"/>
<path d="M63.7791 7.29368C64.1088 6.9837 64.6273 6.99964 64.9372 7.32926L65.4088 7.83073C65.7188 8.16036 65.7029 8.67885 65.3732 8.98883L60.2837 13.775C59.954 14.0849 59.4355 14.069 59.1256 13.7394L58.654 13.2379C58.344 12.9083 58.3599 12.3898 58.6896 12.0798L63.7791 7.29368Z" fill="#61259E"/>
<path fill-rule="evenodd" clip-rule="evenodd" d="M62.391 8.49278C61.8082 8.25266 61.1631 8.20262 60.5494 8.35022C59.9357 8.49781 59.3866 8.83497 58.9805 9.3114C58.5745 9.7877 58.3324 10.3787 58.2875 10.9988C58.2426 11.619 58.3971 12.2378 58.7299 12.7662C59.0627 13.2948 59.5571 13.7061 60.1427 13.9392C60.7284 14.1723 61.3741 14.2146 61.9859 14.0597C62.5377 13.92 63.0437 13.8277 63.4881 13.2932L65.1498 14.5714C64.4555 15.4063 63.779 16.1781 62.5981 16.4771C61.4772 16.7609 60.2946 16.6836 59.2205 16.2561C58.1463 15.8286 57.2351 15.0723 56.6197 14.095C56.0042 13.1176 55.7169 11.9702 55.8003 10.8188C55.8836 9.66734 56.3332 8.57309 57.0826 7.6938C57.8319 6.81464 58.842 6.19602 59.9663 5.92564C61.0905 5.65528 62.2721 5.74671 63.341 6.18709C63.9545 6.43985 64.4309 6.82428 64.8047 7.18049C65.019 7.38466 65.2711 7.65517 65.4772 7.87635C65.5819 7.98872 65.4633 8.23646 65.5333 8.30821L63.96 9.90166C63.7928 9.73028 63.6658 9.59257 63.5505 9.46758C63.3968 9.30092 63.264 9.15689 63.0845 8.98586C62.8211 8.73487 62.6034 8.58027 62.391 8.49278Z" fill="#61259E"/>
<path fill-rule="evenodd" clip-rule="evenodd" d="M64.9878 13.6491C65.4035 14.198 65.2955 14.9801 64.7465 15.3958C63.8664 16.0623 62.8221 16.4778 61.7247 16.5983C60.6273 16.7187 59.5069 16.3516 58.5031 15.8919L59.5525 13.8126C60.1465 14.0847 60.8032 14.1907 61.4527 14.1195C62.1022 14.0482 62.7202 13.8022 63.2411 13.4078C63.7901 12.9921 64.5721 13.1001 64.9878 13.6491Z" fill="#61259E"/>
</svg>
